<?xml version="1.0" encoding="utf-8"?>
<!-- Generator: Adobe Illustrator 26.2.1, SVG Export Plug-In . SVG Version: 6.00 Build 0)  -->
<svg version="1.1" xmlns="http://www.w3.org/2000/svg" xmlns:xlink="http://www.w3.org/1999/xlink" x="0px" y="0px"
	 viewBox="0 0 150 23.94" style="enable-background:new 0 0 150 23.94;" xml:space="preserve">
<style type="text/css">
	.st0{fill:#FFFFFF;}
	.st1{fill:#1C1B1B;}
	.st2{fill:#9C3E6B;}
	.st3{fill:none;stroke:#9C3E6B;stroke-miterlimit:10;}
</style>
<g id="BG">
	<rect x="-1457.27" y="40.72" class="st0" width="1122" height="1122"/>
</g>
<g id="Object">
	<g>
		<path id="SVGID_x5F_1_x5F_" style="fill:none;" d="M-868.72,270.42c-1.21,46.19-39.63,82.67-85.83,81.46s-82.67-39.63-81.46-85.83
			c1.21-46.19,39.63-82.67,85.83-81.46C-903.98,185.8-867.51,224.23-868.72,270.42z"/>
		<text>		<textPath  xlink:href="#SVGID_x5F_1_x5F_" startOffset="67.3667%">
<tspan  style="font-family:'Sofia-Regular'; font-size:51.3094px;"> </tspan><tspan  class="st2" style="font-family:'Sofia-Regular'; font-size:46.7821px;">moon arome</tspan>		</textPath>
</text>
		<path id="SVGID_x5F_00000065770777248977707770000010407435737132052612_x5F_" style="fill:none;" d="M-842.93,256.83
			c-3.39-60.8-55.42-107.35-116.22-103.96c-60.8,3.39-107.35,55.42-103.96,116.22c3.39,60.8,55.42,107.35,116.22,103.96
			C-886.09,369.67-839.55,317.63-842.93,256.83z"/>
		<text>		<textPath  xlink:href="#SVGID_x5F_00000065770777248977707770000010407435737132052612_x5F_" startOffset="64.5873%">
<tspan  style="font-family:'Sofia-Regular'; font-size:36px;">       perfumes</tspan>		</textPath>
</text>
		<g>
			<g>
				<path class="st1" d="M-916.66,274.05c-4.47-16.76-19.35-24.36-26.23-25.21c6.49,2.7,19.25,10.77,23.27,26
					c0.05,0.18,0.09,0.35,0.14,0.53c-0.07,0.07-0.11,0.18-0.12,0.3c-0.03-0.01-0.05-0.03-0.08-0.04c-0.3-0.12-0.63-0.08-0.89,0.06
					l-0.02,0c0.05,0.27,0.33,0.54,0.73,0.68c0.22,0.08,0.45,0.04,0.63-0.04c0.05,0.23,0.1,0.47,0.15,0.7
					c-0.21-0.03-0.43-0.05-0.67-0.05c-0.71,0-1.32,0.15-1.66,0.37l-0.03,0.01c0.33,0.24,0.96,0.39,1.68,0.39
					c0.29,0,0.56-0.03,0.8-0.08c0.06,0.35,0.13,0.69,0.18,1.04c-0.24-0.03-0.5-0.06-0.77-0.06c-0.79,0-1.49,0.15-1.86,0.37
					l-0.03,0.01c0.37,0.23,1.08,0.39,1.9,0.39c0.31,0,0.6-0.03,0.87-0.07c0.05,0.33,0.1,0.67,0.14,1c-0.19-0.02-0.38-0.03-0.59-0.03
					c-0.79,0-1.49,0.15-1.86,0.37l-0.04,0.01c0.37,0.24,1.08,0.39,1.9,0.39c0.23,0,0.45-0.01,0.65-0.04
					c0.04,0.47,0.08,0.94,0.11,1.41c-0.3-0.05-0.61-0.09-0.96-0.1c-0.83-0.15-1.59-0.13-2.08,0.01l-0.04,0
					c0.33,0.29,1.11,0.6,2.06,0.76c0.38,0.01,0.73-0.01,1.05-0.05c0.01,0.38,0.02,0.75,0.03,1.13c-0.11-0.04-0.21-0.07-0.32-0.11
					c-0.57-0.17-1.12-0.16-1.52-0.05l-0.03,0c0.18,0.29,0.71,0.61,1.39,0.8c0.16,0.05,0.32,0.08,0.47,0.1
					c0,0.41-0.02,0.82-0.03,1.23c-0.18-0.03-0.36-0.04-0.55-0.05c-0.66-0.15-1.27-0.13-1.67,0.01l-0.03,0
					c0.24,0.29,0.87,0.59,1.63,0.75c0.21,0.01,0.41,0,0.59-0.01c-0.02,0.32-0.05,0.65-0.07,0.97c-0.25-0.08-0.52-0.14-0.82-0.18
					c-0.71-0.09-1.39-0.04-1.72,0.14l-0.03,0.01c0.34,0.28,0.9,0.53,1.62,0.61c0.32,0.04,0.62,0.04,0.89,0.02
					c-0.04,0.42-0.09,0.84-0.15,1.25c-0.41-0.12-0.93-0.2-1.5-0.21c-0.83-0.15-1.59-0.13-2.08,0.01l-0.04,0
					c0.33,0.29,1.11,0.6,2.06,0.76c0.57,0.02,1.08-0.04,1.49-0.12c-0.09,0.61-0.19,1.22-0.31,1.81c-0.37-0.27-1.07-0.56-1.92-0.72
					c-0.85-0.17-1.63-0.17-2.12-0.04l-0.04,0c0.33,0.3,1.11,0.62,2.05,0.81c0.8,0.16,1.52,0.16,2.01,0.06
					c-0.06,0.32-0.13,0.64-0.2,0.95c-0.48-0.14-1.06-0.25-1.71-0.31c-1.08-0.09-2.03-0.02-2.53,0.16l-0.04,0.01
					c0.49,0.27,1.41,0.51,2.48,0.6c0.64,0.06,1.22,0.05,1.7,0c-0.12,0.49-0.24,0.98-0.37,1.46c-0.43-0.11-0.92-0.22-1.46-0.29
					c-1.16-0.03-2.18,0.11-2.73,0.32l-0.05,0.01c0.54,0.25,1.55,0.42,2.73,0.45c0.48,0.07,0.93,0.09,1.33,0.1
					c-0.09,0.32-0.18,0.62-0.28,0.93c-0.54-0.23-1.35-0.45-2.27-0.55c-1.16-0.02-2.18,0.11-2.73,0.32l-0.05,0.01
					c0.54,0.24,1.56,0.42,2.73,0.44c0.85,0.1,1.63,0.13,2.22,0.07c-0.16,0.48-0.32,0.96-0.48,1.42c-0.5-0.48-1.57-1.08-2.88-1.11
					c-1.4-0.01-2.56,0.18-3.2,0.42l-0.05,0.01c0.62,0.21,1.86,0.34,3.22,0.34c1.24,0.05,2.18,0.32,2.87,0.46
					c-0.19,0.51-0.38,1-0.58,1.49c-0.6-0.37-1.55-0.76-2.69-0.92c-1.35-0.18-2.52-0.21-3.19-0.1l-0.05,0
					c0.57,0.33,1.76,0.69,3.13,0.87c1.09,0.16,2.03,0.33,2.71,0.38c-0.22,0.54-0.45,1.06-0.68,1.56c-0.67-0.31-1.74-0.63-2.99-0.87
					c-1.41-0.26-2.67-0.35-3.38-0.25h-0.06c0.61,0.35,1.84,0.74,3.3,1.02c1.22,0.23,2.31,0.32,3.05,0.28
					c-0.46,0.98-0.94,1.91-1.42,2.77c-0.49-0.62-1.65-1.5-3.22-1.72c-1.62-0.2-3.01-0.05-3.75,0.17l-0.06,0.01
					c0.73,0.24,2.13,0.39,3.7,0.59c1.46,0.22,2.53,0.73,3.29,1.04c-0.88,1.57-1.78,2.91-2.61,3.98l-0.38,0.53
					C-921.07,305.09-912.05,290.89-916.66,274.05z"/>
				<path class="st1" d="M-926,271.09c-5.42-16.38-22.46-20.11-28.83-18.47c6.64-0.17,21.75,4.33,26.61,19.19
					c4.67,14.52-4.53,26.89-10.27,30.58l-0.5,0.39C-932.81,300.68-920.68,287.72-926,271.09z"/>
				<path class="st1" d="M-946.81,306.97c-5.27,0.12-10.69-0.16-15.99,0.04c-2.67,0.11-5.4,0.27-8.22,0.55
					c-2.56,0.84-5.28-0.45-7.93,2.36c-4.9-5.2-12.97-17.51-10.06-32.66c2.65-15.11,14.41-23.88,20.72-27.18l0.57-0.31
					c-6.67,1.32-21.18,9.77-24.3,26.94c-3.16,16.71,7,29.54,13,33.28c-0.2,0.21-0.39,0.44-0.58,0.7c12.06,4.7,22.5,2.7,31.85,3.05
					c4.09-0.27,8.22-0.24,12.3-0.79c1.52-0.21,6.32-0.69,7.54-2.46c0.22-0.31,0.32-0.66,0.28-1.07
					C-927.93,306.89-944.75,306.93-946.81,306.97z"/>
				<path class="st1" d="M-966.62,242.63l0.15,0.31c-0.25,0.12-0.47,0.24-0.7,0.37c0.12,0,0.31-0.01,0.54-0.03
					c-0.07,0.06-0.16,0.11-0.26,0.16c0.01,0.03,0.04,0.04,0.06,0.07c-0.11,0-0.22-0.02-0.34-0.01c-0.49,0.01-1.05,0.08-1.7,0.31
					c-0.41,0.07-1.05,1.13-0.31,1.71c0.44,0.43,0.68,0.45,1.07,0.7c0.36,0.14,0.72,0.27,1.1,0.4c-0.31,0.08-0.63,0.16-0.99,0.32
					c-0.55,1.06-0.04,1.51,0.68,1.76c0.67,0.24,1.51,0.31,1.92,0.52c2.68,0.59,5.86,0.85,9.26,0.89c3.36,0.03,6.51-0.18,9.2-0.62
					c1.33-0.21,2.55-0.51,3.6-0.9c0.16-0.08,0.36-0.16,0.55-0.27c0.33-0.18,0.64-0.44,0.59-0.87c-0.03-0.04-0.06-0.06-0.08-0.1
					c-0.02-0.24-0.07-0.52-0.2-0.79c-0.2-0.21-0.41-0.37-0.61-0.49c0.04-0.02,0.08-0.03,0.12-0.05c0.44-0.29,1.35-0.52,1.3-1.48
					c-0.24-0.36-0.48-0.47-0.7-0.51c-0.1-0.27-0.25-0.52-0.44-0.77l0.02-0.02c0.05,0.05,0.09,0.12,0.13,0.18l-0.29-0.53
					c-0.02-0.03-0.04-0.08-0.06-0.12c-0.01-0.03-0.02-0.07-0.04-0.11c-1.25-3.27,4.17-6.86,3.03-13.01
					c-0.95-6.06-6.76-12.95-15.04-13.1c-8.17-0.09-14.24,6.52-15.38,12.51C-972.73,235.91-965.86,239.11-966.62,242.63z
					 M-951.63,242.27c-0.03,0.47-0.04,0.97-0.04,1.5c0,0.42,0.01,0.83,0.02,1.21c-0.46,0-0.93-0.01-1.4-0.01
					c0.03-0.44,0.05-0.91,0.05-1.41c0-0.45-0.01-0.86-0.04-1.26C-952.56,242.28-952.09,242.27-951.63,242.27z M-953.71,244.96
					c-0.35,0-0.7,0-1.05-0.01c0.03-0.44,0.05-0.91,0.04-1.43c-0.05-0.41-0.11-0.8-0.18-1.17c0.4-0.02,0.79-0.03,1.18-0.05
					c-0.02,0.4-0.04,0.81-0.04,1.24C-953.77,244.05-953.75,244.52-953.71,244.96z M-955.5,243.57c0.01,0.5,0.04,0.95,0.09,1.39
					c-0.31,0-0.62-0.01-0.93-0.01c-0.31-0.01-0.6-0.01-0.9-0.01c0.03-0.37,0.05-0.75,0.05-1.17c0-0.46-0.03-0.88-0.06-1.28
					c0.55-0.03,1.11-0.07,1.67-0.1C-955.58,242.77-955.55,243.15-955.5,243.57z M-957.92,244.93c-0.51,0-1.02-0.01-1.52-0.02
					c0.09-0.51,0.14-1.11,0.14-1.77c0-0.17-0.01-0.34-0.02-0.5c0.46-0.03,0.93-0.07,1.4-0.1c-0.04,0.39-0.06,0.79-0.06,1.23
					C-957.97,244.18-957.95,244.56-957.92,244.93z M-959.93,244.9c-0.36-0.01-0.72-0.01-1.07-0.02c0.06-0.41,0.11-0.86,0.13-1.36
					c0-0.26-0.03-0.51-0.07-0.75c0.29-0.03,0.59-0.05,0.89-0.07c-0.01,0.15-0.01,0.29-0.01,0.44
					C-960.07,243.8-960.02,244.4-959.93,244.9z M-961.65,243.52c-0.02,0.48,0,0.93,0.03,1.35c-0.52-0.01-1.03-0.02-1.52-0.04
					c0.04-0.33,0.06-0.68,0.06-1.06c0-0.28-0.01-0.56-0.03-0.81c0.46-0.04,0.94-0.08,1.44-0.13
					C-961.66,243.05-961.65,243.28-961.65,243.52z M-963.8,244.8c-0.35-0.02-0.69-0.03-1.03-0.05c0.17-0.45,0.31-1.03,0.41-1.68
					c0.19-0.02,0.39-0.04,0.59-0.06c-0.02,0.24-0.03,0.49-0.03,0.75C-963.85,244.14-963.83,244.48-963.8,244.8z M-965.49,243.78
					c0.09-0.08,0.17-0.17,0.26-0.25c-0.04,0.45-0.04,0.86-0.01,1.21c-0.07,0-0.14,0-0.21-0.01c-0.45,0.08-0.99-0.02-1.47-0.12
					C-966.46,244.44-965.95,244.17-965.49,243.78z M-943.23,246.9c-0.02,0-0.04-0.01-0.05-0.01c0.03,0.01,0.05,0.03,0.08,0.04
					c0.02,0.02,0.03,0.04,0.05,0.06c0.11,0.26,0.26,0.48,0.43,0.68c-0.58,0.45-2.96,0.62-4.38,0.71c-2.63,0.16-5.74,0.22-9.05,0.19
					c-3.24-0.04-6.28-0.14-8.84-0.43c-1.12-0.03-2.86-0.54-2.77-0.6c0.28-0.33,0.85-0.55,1.4-0.74c0.09,0.02,0.19,0.06,0.27,0.08
					c2.82,0.73,6.15,1.08,9.7,1.11c1.75,0.02,3.46-0.05,5.06-0.19c0.01,0.03,0.01,0.06,0.02,0.09l0.01,0.07
					c0.01-0.05,0.03-0.11,0.04-0.17c1.6-0.14,3.1-0.35,4.48-0.63c1.13-0.22,2.19-0.52,3.14-0.89
					C-943.53,246.5-943.41,246.71-943.23,246.9z M-943.07,243.99c0.21,0.25,0.36,0.52,0.47,0.79c-0.72,0.21-2.95,0.03-4.41,0.19
					c-1.21,0.02-2.53,0.02-3.91,0.01c0.01-0.39,0.03-0.79,0.03-1.21c0-0.52-0.02-1.02-0.04-1.5c2.23,0.02,4.14,0.17,5.27,0.56
					l1.42,0.35c0.51,0.21,0.89,0.49,1.16,0.8c-0.01,0-0.02,0-0.03-0.01C-943.09,243.97-943.08,243.98-943.07,243.99z"/>
				<path class="st1" d="M-959.16,253.26l0.51-0.17c-4.92,0.02-15.63,4.17-20.73,14.61c0.05-0.28,0.09-0.56,0.11-0.83
					c-0.02,0.03-0.05,0.06-0.07,0.09c1.22-2.69,2.54-4.91,3.3-6.55c-0.97,0.76-2.28,1.96-3.6,3.54c0.52-0.92,0.98-1.75,1.34-2.5
					c1.15-1.67,2.32-3.02,3.34-4.01c-4.67,1.83-12.18,10.42-12.33,22.24c-0.43,11.49,5.88,20.47,10.36,22.98l0.34,0.29
					c-0.91-1.09-1.95-2.57-2.96-4.35c1.54,1.74,3.08,3.03,4.28,3.82l0.3,0.26c-0.46-0.7-1.02-1.52-1.63-2.46
					c-0.86-1.36-1.91-3.27-2.86-5.61c-0.37-2.12-1.08-4.66-1.69-7.45c0.02-0.15,0.04-0.29,0.06-0.44c2.1,6.99,6.81,12.06,9.91,13.74
					c-4.16-3.93-11.37-14.64-7.76-27.28C-975.76,260.81-964.81,254.86-959.16,253.26z"/>
				<path class="st1" d="M-923.12,303.45c-0.4-0.53-1.48-1.34-2.92-1.7c-1.41-0.3-2.67-0.21-3.33,0l-0.06,0.01
					c0.65,0.25,1.85,0.46,3.2,0.75C-924.88,302.85-923.82,303.29-923.12,303.45z"/>
				<path class="st1" d="M-948.34,300.1c-1.83-0.24-5.39-0.39-9.48-0.39c-4.06,0-7.59,0.15-9.44,0.39c1.84,0.23,5.38,0.39,9.44,0.39
					c3.97,0,7.43-0.15,9.31-0.37L-948.34,300.1z"/>
				<path class="st1" d="M-950.44,302.2c-1.71-0.2-5.04-0.27-8.86-0.18c-3.78,0.09-7.07,0.32-8.79,0.6
					c1.72,0.19,5.03,0.27,8.82,0.18c3.7-0.09,6.92-0.32,8.68-0.58L-950.44,302.2z"/>
			</g>
		</g>
		<path class="st1" d="M-870.58,275.7c-0.16,0.08-0.33,0.18-0.48,0.29c-0.16,0.11-0.3,0.23-0.45,0.36
			c-0.01,0.01-0.02,0.03-0.04,0.04c0.03,0.31-0.12,0.54-0.56,0.62c-0.05,0.08-0.12,0.15-0.16,0.23c-0.1,0.16-0.18,0.34-0.26,0.52
			c-0.47,1.09-0.49,2.27-0.18,3.38c0.06,0.22,0.14,0.44,0.23,0.66c0.28,0.61,0.64,1.18,1.04,1.71c0.14,0.17,0.28,0.34,0.42,0.52
			c0.17,0.2,0.35,0.38,0.52,0.57c0.2-0.01,0.43-0.01,0.71,0.03c0.35,0.29,0.3,0.53-0.03,0.68c0.94,0.94,1.95,1.83,2.87,2.79
			c0.12,0.12,0.24,0.24,0.36,0.37c0.6,0.63,1.2,1.25,1.82,1.87c0.14,0.14,0.28,0.29,0.42,0.43c0.82,0.84,1.62,1.69,2.37,2.57
			c0.62-0.92,1.29-1.8,1.99-2.67c0.12-0.15,0.24-0.29,0.36-0.43c0.53-0.63,1.03-1.28,1.53-1.92c0.1-0.13,0.2-0.26,0.3-0.38
			c0.01-0.01,0.02-0.02,0.03-0.03c-0.02,0-0.04,0-0.06,0.01c-1.69-0.04-1.45-1.46,0.54-1.09c0.08,0.08,0.15,0.16,0.22,0.24
			c0.94-1.09,1.93-2.14,2.71-3.3c0.12-0.17,0.23-0.35,0.34-0.53c0.33-0.54,0.6-1.11,0.78-1.73c0.05-0.22,0.11-0.44,0.13-0.66
			c0.14-1.12-0.05-2.3-0.69-3.36c-0.09-0.17-0.21-0.35-0.33-0.51c-0.25-0.32-0.55-0.62-0.9-0.87c-0.16-0.13-0.33-0.25-0.5-0.35
			c-0.18-0.11-0.35-0.2-0.53-0.28c-1.44-0.64-3.05-0.52-4.38,0.15c-1.31,0.65-2.1,1.91-2.63,3.22c-0.73-1.27-1.72-2.49-3.1-3.1
			C-867.62,275.1-869.24,275.02-870.58,275.7z M-862.36,281c0.65,0.07,1.3,0.14,1.12,0.55c0.49-0.17,0.17-0.74,0.82-0.83
			c0.61,0.44,1.4,1.12,2.51,0.99c-0.68,0.5,1.23,0.87,1.13,1.54c-1.61,0.12-3.11,0.1-4.99-0.48c0.39-0.87-0.56-0.28-1.13-1.04
			C-862.82,281.43-862.58,281.22-862.36,281z M-865.11,282.98c-0.24,0.21-0.77,0.28-0.55,0.72c-0.46-0.02-0.93-0.04-1.39-0.07
			c-0.3-0.37-0.63-0.74-0.57-1.27C-866,282.26-866.09,282.84-865.11,282.98z"/>
		<path class="st2" d="M-1052.58,275.7c-0.16,0.08-0.33,0.18-0.48,0.29c-0.16,0.11-0.3,0.23-0.45,0.36
			c-0.01,0.01-0.02,0.03-0.04,0.04c0.03,0.31-0.12,0.54-0.56,0.62c-0.05,0.08-0.12,0.15-0.16,0.23c-0.1,0.16-0.18,0.34-0.26,0.52
			c-0.47,1.09-0.49,2.27-0.18,3.38c0.06,0.22,0.14,0.44,0.23,0.66c0.28,0.61,0.64,1.18,1.04,1.71c0.14,0.17,0.28,0.34,0.42,0.52
			c0.17,0.2,0.35,0.38,0.52,0.57c0.2-0.01,0.43-0.01,0.71,0.03c0.35,0.29,0.3,0.53-0.03,0.68c0.94,0.94,1.95,1.83,2.87,2.79
			c0.12,0.12,0.24,0.24,0.36,0.37c0.6,0.63,1.2,1.25,1.82,1.87c0.14,0.14,0.28,0.29,0.42,0.43c0.82,0.84,1.62,1.69,2.37,2.57
			c0.62-0.92,1.29-1.8,1.99-2.67c0.12-0.15,0.24-0.29,0.36-0.43c0.53-0.63,1.03-1.28,1.53-1.92c0.1-0.13,0.2-0.26,0.3-0.38
			c0.01-0.01,0.02-0.02,0.03-0.03c-0.02,0-0.04,0-0.06,0.01c-1.69-0.04-1.45-1.46,0.54-1.09c0.08,0.08,0.15,0.16,0.22,0.24
			c0.94-1.09,1.93-2.14,2.71-3.3c0.12-0.17,0.23-0.35,0.34-0.53c0.33-0.54,0.6-1.11,0.78-1.73c0.05-0.22,0.11-0.44,0.13-0.66
			c0.14-1.12-0.05-2.3-0.69-3.36c-0.09-0.17-0.21-0.35-0.33-0.51c-0.25-0.32-0.55-0.62-0.9-0.87c-0.16-0.13-0.33-0.25-0.5-0.35
			c-0.18-0.11-0.35-0.2-0.53-0.28c-1.44-0.64-3.05-0.52-4.38,0.15c-1.31,0.65-2.1,1.91-2.63,3.22c-0.73-1.27-1.72-2.49-3.1-3.1
			C-1049.62,275.1-1051.24,275.02-1052.58,275.7z M-1044.36,281c0.65,0.07,1.3,0.14,1.12,0.55c0.49-0.17,0.17-0.74,0.82-0.83
			c0.61,0.44,1.4,1.12,2.51,0.99c-0.68,0.5,1.23,0.87,1.13,1.54c-1.61,0.12-3.11,0.1-4.99-0.48c0.39-0.87-0.56-0.28-1.13-1.04
			C-1044.82,281.43-1044.58,281.22-1044.36,281z M-1047.11,282.98c-0.24,0.21-0.77,0.28-0.55,0.72c-0.46-0.02-0.93-0.04-1.39-0.07
			c-0.3-0.37-0.63-0.74-0.57-1.27C-1048,282.26-1048.09,282.84-1047.11,282.98z"/>
	</g>
	<text transform="matrix(0.9761 0 0 1 -813.4792 385.4004)" style="font-family:'ShreeDev0714'; font-size:9.5254px;">PERFUMES</text>
	<g>
		<g>
			<path class="st1" d="M-640.52,280.9c-1.96-7.37-8.51-10.71-11.53-11.08c2.85,1.19,8.46,4.73,10.23,11.43
				c0.02,0.08,0.04,0.15,0.06,0.23c-0.03,0.03-0.05,0.08-0.05,0.13c-0.01,0-0.02-0.01-0.04-0.02c-0.13-0.05-0.28-0.03-0.39,0.03
				l-0.01,0c0.02,0.12,0.15,0.24,0.32,0.3c0.1,0.04,0.2,0.02,0.28-0.02c0.02,0.1,0.04,0.21,0.07,0.31
				c-0.09-0.01-0.19-0.02-0.29-0.02c-0.31,0-0.58,0.06-0.73,0.16l-0.01,0c0.14,0.1,0.42,0.17,0.74,0.17c0.13,0,0.24-0.01,0.35-0.03
				c0.03,0.15,0.05,0.3,0.08,0.46c-0.11-0.01-0.22-0.02-0.34-0.02c-0.35,0-0.65,0.07-0.82,0.16l-0.01,0.01
				c0.16,0.1,0.47,0.17,0.83,0.17c0.14,0,0.26-0.01,0.38-0.03c0.02,0.15,0.04,0.3,0.06,0.44c-0.08-0.01-0.17-0.01-0.26-0.01
				c-0.35,0-0.65,0.07-0.82,0.16l-0.02,0c0.16,0.1,0.47,0.17,0.83,0.17c0.1,0,0.2-0.01,0.29-0.02c0.02,0.21,0.04,0.41,0.05,0.62
				c-0.13-0.02-0.27-0.04-0.42-0.04c-0.37-0.07-0.7-0.06-0.91,0.01l-0.02,0c0.14,0.13,0.49,0.26,0.91,0.33
				c0.17,0,0.32-0.01,0.46-0.02c0.01,0.17,0.01,0.33,0.01,0.5c-0.05-0.02-0.09-0.03-0.14-0.05c-0.25-0.07-0.49-0.07-0.67-0.02
				l-0.01,0c0.08,0.13,0.31,0.27,0.61,0.35c0.07,0.02,0.14,0.03,0.21,0.04c0,0.18-0.01,0.36-0.01,0.54
				c-0.08-0.01-0.16-0.02-0.24-0.02c-0.29-0.06-0.56-0.06-0.74,0.01l-0.01,0c0.11,0.13,0.38,0.26,0.72,0.33c0.09,0,0.18,0,0.26-0.01
				c-0.01,0.14-0.02,0.28-0.03,0.43c-0.11-0.03-0.23-0.06-0.36-0.08c-0.31-0.04-0.61-0.02-0.75,0.06l-0.01,0
				c0.15,0.12,0.4,0.23,0.71,0.27c0.14,0.02,0.27,0.02,0.39,0.01c-0.02,0.19-0.04,0.37-0.07,0.55c-0.18-0.05-0.41-0.09-0.66-0.09
				c-0.37-0.07-0.7-0.06-0.91,0.01l-0.02,0c0.14,0.13,0.49,0.26,0.91,0.33c0.25,0.01,0.47-0.02,0.66-0.05
				c-0.04,0.27-0.09,0.54-0.14,0.8c-0.16-0.12-0.47-0.24-0.85-0.32c-0.37-0.07-0.72-0.07-0.93-0.02l-0.02,0
				c0.14,0.13,0.49,0.27,0.9,0.36c0.35,0.07,0.67,0.07,0.88,0.03c-0.03,0.14-0.06,0.28-0.09,0.42c-0.21-0.06-0.47-0.11-0.75-0.13
				c-0.47-0.04-0.89-0.01-1.11,0.07l-0.02,0c0.22,0.12,0.62,0.22,1.09,0.26c0.28,0.02,0.54,0.02,0.75,0
				c-0.05,0.22-0.11,0.43-0.16,0.64c-0.19-0.05-0.41-0.1-0.64-0.13c-0.51-0.01-0.96,0.05-1.2,0.14l-0.02,0
				c0.24,0.11,0.68,0.19,1.2,0.2c0.21,0.03,0.41,0.04,0.59,0.04c-0.04,0.14-0.08,0.27-0.12,0.41c-0.24-0.1-0.59-0.2-1-0.24
				c-0.51-0.01-0.96,0.05-1.2,0.14l-0.02,0c0.24,0.11,0.68,0.18,1.2,0.19c0.37,0.04,0.72,0.06,0.97,0.03
				c-0.07,0.21-0.14,0.42-0.21,0.63c-0.22-0.21-0.69-0.47-1.27-0.49c-0.61,0-1.12,0.08-1.41,0.19l-0.02,0
				c0.27,0.09,0.82,0.15,1.42,0.15c0.54,0.02,0.96,0.14,1.26,0.2c-0.08,0.22-0.17,0.44-0.25,0.65c-0.26-0.16-0.68-0.33-1.18-0.41
				c-0.59-0.08-1.11-0.09-1.4-0.04l-0.02,0c0.25,0.15,0.77,0.3,1.38,0.38c0.48,0.07,0.89,0.14,1.19,0.17
				c-0.1,0.24-0.2,0.46-0.3,0.69c-0.29-0.14-0.76-0.28-1.31-0.38c-0.62-0.12-1.17-0.15-1.49-0.11h-0.03
				c0.27,0.15,0.81,0.33,1.45,0.45c0.54,0.1,1.02,0.14,1.34,0.12c-0.2,0.43-0.41,0.84-0.62,1.22c-0.21-0.27-0.72-0.66-1.42-0.76
				c-0.71-0.09-1.32-0.02-1.65,0.07l-0.03,0c0.32,0.11,0.94,0.17,1.63,0.26c0.64,0.1,1.11,0.32,1.45,0.46
				c-0.39,0.69-0.78,1.28-1.15,1.75l-0.17,0.23C-642.46,294.55-638.49,288.31-640.52,280.9z"/>
			<path class="st1" d="M-644.62,279.6c-2.38-7.2-9.88-8.84-12.67-8.12c2.92-0.08,9.56,1.9,11.7,8.44
				c2.05,6.38-1.99,11.82-4.52,13.45l-0.22,0.17C-647.62,292.61-642.29,286.92-644.62,279.6z"/>
			<path class="st1" d="M-653.78,295.38c-2.32,0.05-4.7-0.07-7.03,0.02c-1.17,0.05-2.38,0.12-3.61,0.24
				c-1.13,0.37-2.32-0.2-3.48,1.04c-2.15-2.29-5.7-7.7-4.42-14.36c1.16-6.64,6.34-10.5,9.11-11.95l0.25-0.14
				c-2.93,0.58-9.31,4.29-10.68,11.84c-1.39,7.35,3.08,12.99,5.71,14.63c-0.09,0.09-0.17,0.19-0.26,0.31c5.3,2.06,9.89,1.19,14,1.34
				c1.8-0.12,3.62-0.11,5.41-0.35c0.67-0.09,2.78-0.3,3.31-1.08c0.1-0.14,0.14-0.29,0.12-0.47
				C-645.47,295.34-652.87,295.36-653.78,295.38z"/>
			<path class="st1" d="M-662.49,267.09l0.07,0.14c-0.11,0.05-0.21,0.1-0.31,0.16c0.05,0,0.14-0.01,0.24-0.01
				c-0.03,0.02-0.07,0.05-0.11,0.07c0.01,0.01,0.02,0.02,0.03,0.03c-0.05,0-0.1-0.01-0.15-0.01c-0.22,0-0.46,0.03-0.75,0.14
				c-0.18,0.03-0.46,0.5-0.13,0.75c0.2,0.19,0.3,0.2,0.47,0.31c0.16,0.06,0.32,0.12,0.48,0.17c-0.14,0.03-0.28,0.07-0.44,0.14
				c-0.24,0.46-0.02,0.66,0.3,0.78c0.29,0.1,0.66,0.14,0.84,0.23c1.18,0.26,2.58,0.37,4.07,0.39c1.48,0.01,2.86-0.08,4.04-0.27
				c0.59-0.09,1.12-0.22,1.58-0.39c0.07-0.03,0.16-0.07,0.24-0.12c0.15-0.08,0.28-0.19,0.26-0.38c-0.01-0.02-0.02-0.03-0.04-0.04
				c-0.01-0.11-0.03-0.23-0.09-0.35c-0.09-0.09-0.18-0.16-0.27-0.21c0.02-0.01,0.03-0.01,0.05-0.02c0.19-0.13,0.6-0.23,0.57-0.65
				c-0.11-0.16-0.21-0.21-0.31-0.22c-0.04-0.12-0.11-0.23-0.19-0.34l0.01-0.01c0.02,0.02,0.04,0.05,0.06,0.08l-0.13-0.23
				c-0.01-0.01-0.02-0.03-0.03-0.05c0-0.01-0.01-0.03-0.02-0.05c-0.55-1.44,1.83-3.02,1.33-5.72c-0.42-2.66-2.97-5.69-6.61-5.76
				c-3.59-0.04-6.26,2.87-6.76,5.5C-665.17,264.14-662.15,265.54-662.49,267.09z M-655.89,266.93c-0.01,0.21-0.02,0.43-0.02,0.66
				c0,0.18,0,0.36,0.01,0.53c-0.2,0-0.41,0-0.62,0c0.01-0.2,0.02-0.4,0.02-0.62c0-0.2-0.01-0.38-0.02-0.56
				C-656.3,266.93-656.09,266.93-655.89,266.93z M-656.81,268.12c-0.15,0-0.31,0-0.46,0c0.01-0.2,0.02-0.4,0.02-0.63
				c-0.02-0.18-0.05-0.35-0.08-0.51c0.17-0.01,0.35-0.01,0.52-0.02c-0.01,0.17-0.02,0.36-0.02,0.55
				C-656.83,267.72-656.82,267.92-656.81,268.12z M-657.6,267.5c0,0.22,0.02,0.42,0.04,0.61c-0.14,0-0.27,0-0.41,0
				c-0.14,0-0.26,0-0.4,0c0.01-0.16,0.02-0.33,0.02-0.51c0-0.2-0.01-0.39-0.03-0.56c0.24-0.02,0.49-0.03,0.73-0.04
				C-657.63,267.15-657.62,267.32-657.6,267.5z M-658.66,268.1c-0.23,0-0.45-0.01-0.67-0.01c0.04-0.22,0.06-0.49,0.06-0.78
				c0-0.08,0-0.15-0.01-0.22c0.2-0.02,0.41-0.03,0.62-0.04c-0.02,0.17-0.03,0.35-0.03,0.54
				C-658.68,267.77-658.67,267.94-658.66,268.1z M-659.54,268.09c-0.16,0-0.32,0-0.47-0.01c0.03-0.18,0.05-0.38,0.06-0.6
				c0-0.12-0.01-0.23-0.03-0.33c0.13-0.01,0.26-0.02,0.39-0.03c0,0.06-0.01,0.13-0.01,0.19
				C-659.6,267.6-659.58,267.87-659.54,268.09z M-660.3,267.48c-0.01,0.21,0,0.41,0.01,0.59c-0.23-0.01-0.45-0.01-0.67-0.02
				c0.02-0.15,0.03-0.3,0.03-0.47c0-0.13,0-0.24-0.01-0.36c0.2-0.02,0.41-0.04,0.63-0.06C-660.3,267.27-660.3,267.38-660.3,267.48z
				 M-661.24,268.05c-0.15-0.01-0.3-0.01-0.45-0.02c0.07-0.2,0.14-0.45,0.18-0.74c0.08-0.01,0.17-0.02,0.26-0.02
				c-0.01,0.11-0.01,0.22-0.01,0.33C-661.27,267.75-661.26,267.9-661.24,268.05z M-661.99,267.59c0.04-0.03,0.07-0.07,0.11-0.11
				c-0.02,0.2-0.02,0.38-0.01,0.53c-0.03,0-0.06,0-0.09,0c-0.2,0.04-0.43-0.01-0.65-0.05
				C-662.41,267.89-662.19,267.77-661.99,267.59z M-652.2,268.97c-0.01,0-0.02,0-0.02,0c0.01,0.01,0.02,0.01,0.04,0.02
				c0.01,0.01,0.01,0.02,0.02,0.03c0.05,0.12,0.11,0.21,0.19,0.3c-0.26,0.2-1.3,0.27-1.93,0.31c-1.15,0.07-2.52,0.09-3.98,0.09
				c-1.42-0.02-2.76-0.06-3.89-0.19c-0.49-0.01-1.26-0.24-1.22-0.26c0.12-0.14,0.37-0.24,0.61-0.32c0.04,0.01,0.08,0.02,0.12,0.03
				c1.24,0.32,2.7,0.47,4.26,0.49c0.77,0.01,1.52-0.02,2.23-0.08c0,0.01,0.01,0.03,0.01,0.04l0.01,0.03
				c0.01-0.02,0.01-0.05,0.02-0.07c0.7-0.06,1.36-0.15,1.97-0.28c0.5-0.09,0.96-0.23,1.38-0.39
				C-652.33,268.79-652.28,268.88-652.2,268.97z M-652.13,267.69c0.09,0.11,0.16,0.23,0.21,0.35c-0.32,0.09-1.29,0.02-1.94,0.08
				c-0.53,0.01-1.11,0.01-1.72,0c0.01-0.17,0.01-0.35,0.01-0.53c0-0.23-0.01-0.45-0.02-0.66c0.98,0.01,1.82,0.07,2.32,0.25
				l0.62,0.15C-652.42,267.42-652.25,267.54-652.13,267.69c-0.01-0.01-0.01-0.01-0.02-0.01
				C-652.14,267.68-652.14,267.68-652.13,267.69z"/>
			<path class="st1" d="M-659.21,271.76l0.22-0.08c-2.16,0.01-6.87,1.83-9.12,6.42c0.02-0.12,0.04-0.25,0.05-0.37
				c-0.01,0.01-0.02,0.03-0.03,0.04c0.54-1.18,1.12-2.16,1.45-2.88c-0.43,0.33-1,0.86-1.58,1.56c0.23-0.41,0.43-0.77,0.59-1.1
				c0.51-0.73,1.02-1.33,1.47-1.76c-2.05,0.81-5.35,4.58-5.42,9.78c-0.19,5.05,2.58,9,4.55,10.11l0.15,0.13
				c-0.4-0.48-0.86-1.13-1.3-1.91c0.68,0.76,1.35,1.33,1.88,1.68l0.13,0.12c-0.2-0.31-0.45-0.67-0.72-1.08
				c-0.38-0.6-0.84-1.44-1.26-2.47c-0.16-0.93-0.47-2.05-0.74-3.28c0.01-0.07,0.02-0.13,0.03-0.19c0.92,3.08,2.99,5.3,4.36,6.04
				c-1.83-1.73-5-6.44-3.41-11.99C-666.5,275.09-661.69,272.47-659.21,271.76z"/>
			<path class="st1" d="M-643.36,293.83c-0.18-0.23-0.65-0.59-1.28-0.75c-0.62-0.13-1.17-0.09-1.46,0l-0.03,0
				c0.28,0.11,0.81,0.2,1.41,0.33C-644.13,293.57-643.66,293.76-643.36,293.83z"/>
			<path class="st1" d="M-654.45,292.36c-0.81-0.1-2.37-0.17-4.17-0.17c-1.78,0-3.34,0.07-4.15,0.17c0.81,0.1,2.37,0.17,4.15,0.17
				c1.74,0,3.27-0.07,4.09-0.16L-654.45,292.36z"/>
			<path class="st1" d="M-655.37,293.28c-0.75-0.09-2.21-0.12-3.9-0.08c-1.66,0.04-3.11,0.14-3.87,0.26
				c0.76,0.08,2.21,0.12,3.88,0.08c1.63-0.04,3.04-0.14,3.82-0.26L-655.37,293.28z"/>
		</g>
	</g>
	<line class="st3" x1="-665.81" y1="389.6" x2="-566.46" y2="389.6"/>
	<line class="st3" x1="-939.76" y1="207.75" x2="-771.08" y2="207.75"/>
	<g>
		<g>
			<path class="st1" d="M7,12.8c0-2.49-0.66-3.37-1.66-3.37c-1.71,0-2.85,1.5-2.85,7.06c0,0,0,0.03,0,4.45c0,0-0.28,0.4-1.05,0.4
				C0.69,21.33,0,20.82,0,19.6V8.83c0,0,0.28-0.4,1.05-0.4c0.75,0,1.44,0.51,1.44,1.73c0.61-1.11,1.6-1.73,3.18-1.73
				c1.63,0,2.93,0.77,3.54,2.3c0.61-1.47,1.72-2.3,3.51-2.3c2.32,0,3.93,1.53,3.93,4.51v4.03c0,2.21,0.75,3.26,1.85,3.26
				c1.24,0,2.6-1.16,2.6-5.53c0,0,0.03-0.17,0.42-0.17c0.22,0,0.5,0.28,0.5,1.5c0,3.15-1.38,5.3-3.85,5.3
				c-2.79,0-4.12-1.98-4.12-5.22V12.8c0-2.49-0.66-3.37-1.66-3.37c-1.44,0-2.82,1.47-2.82,7.11v4.39c0,0-0.28,0.4-1.05,0.4
				C7.77,21.33,7,20.82,7,19.6V12.8z"/>
			<path class="st1" d="M26.92,21.33c-3.04,0-5.64-2.24-5.64-6.49c0-4.11,2.27-6.41,5.5-6.41c3.07,0,5.5,2.18,5.5,6.41
				C32.28,18.27,30.35,21.33,26.92,21.33z M26.92,20.23c1.47,0,2.21-0.74,2.52-2.47c-2.46-0.54-4.62-2.49-5.5-4.51
				c-0.03,0.48-0.03,1.02-0.03,1.59C23.9,18.7,24.79,20.23,26.92,20.23z M24.93,11.02c0,2.47,2.19,4.96,4.68,5.67
				c0.03-0.54,0.06-1.16,0.06-1.84c0-3.83-0.61-5.3-2.9-5.3C25.81,9.54,24.93,10.02,24.93,11.02z"/>
			<path class="st1" d="M39.98,21.33c-3.04,0-5.64-2.24-5.64-6.49c0-4.11,2.27-6.41,5.5-6.41c3.07,0,5.5,2.18,5.5,6.41
				C45.34,18.27,43.41,21.33,39.98,21.33z M39.98,20.23c1.47,0,2.21-0.74,2.52-2.47c-2.46-0.54-4.62-2.49-5.5-4.51
				c-0.03,0.48-0.03,1.02-0.03,1.59C36.96,18.7,37.85,20.23,39.98,20.23z M37.98,11.02c0,2.47,2.19,4.96,4.68,5.67
				c0.03-0.54,0.06-1.16,0.06-1.84c0-3.83-0.61-5.3-2.9-5.3C38.87,9.54,37.98,10.02,37.98,11.02z"/>
			<path class="st1" d="M62.22,14.53c0.22,0,0.5,0.28,0.5,1.5c0,3.15-1.38,5.3-3.84,5.3c-2.79,0-4.12-1.98-4.12-5.22V12.8
				c0-2.49-0.66-3.37-1.66-3.37c-1.69,0-3.35,1.45-3.35,6.66v4.85c0,0-0.28,0.4-1.05,0.4c-0.75,0-1.44-0.51-1.44-1.73V8.83
				c0,0,0.28-0.4,1.05-0.4c0.75,0,1.44,0.45,1.44,2.13c0.75-1.36,1.94-2.13,3.68-2.13c2.32,0,3.93,1.53,3.93,4.51v4.03
				c0,2.21,0.75,3.26,1.85,3.26c1.24,0,2.6-1.16,2.6-5.53C61.8,14.7,61.83,14.53,62.22,14.53z"/>
		</g>
		<path class="st1" d="M66.99,6.86l0.04,0.08c-0.06,0.03-0.12,0.06-0.18,0.1c0.03,0,0.08,0,0.14-0.01
			c-0.02,0.01-0.04,0.03-0.07,0.04c0,0.01,0.01,0.01,0.02,0.02c-0.03,0-0.06,0-0.09,0c-0.13,0-0.28,0.02-0.45,0.08
			c-0.11,0.02-0.28,0.3-0.08,0.45c0.12,0.11,0.18,0.12,0.28,0.18c0.09,0.04,0.19,0.07,0.29,0.1C66.8,7.93,66.72,7.95,66.62,8
			c-0.14,0.28-0.01,0.4,0.18,0.46c0.18,0.06,0.4,0.08,0.5,0.14c0.71,0.16,1.54,0.22,2.44,0.24c0.88,0.01,1.72-0.05,2.42-0.16
			c0.35-0.05,0.67-0.13,0.95-0.24c0.04-0.02,0.09-0.04,0.14-0.07c0.09-0.05,0.17-0.12,0.16-0.23c-0.01-0.01-0.01-0.02-0.02-0.03
			c0-0.06-0.02-0.14-0.05-0.21c-0.05-0.05-0.11-0.1-0.16-0.13c0.01,0,0.02-0.01,0.03-0.01c0.12-0.08,0.36-0.14,0.34-0.39
			c-0.06-0.09-0.13-0.12-0.18-0.13c-0.03-0.07-0.06-0.14-0.12-0.2l0-0.01c0.01,0.01,0.02,0.03,0.03,0.05l-0.08-0.14
			C73.21,6.93,73.2,6.91,73.2,6.9c0-0.01-0.01-0.02-0.01-0.03c-0.33-0.86,1.1-1.81,0.8-3.42C73.73,1.85,72.2,0.04,70.02,0
			c-2.15-0.02-3.75,1.72-4.05,3.29C65.38,5.09,67.19,5.93,66.99,6.86z M70.94,6.76c-0.01,0.12-0.01,0.26-0.01,0.39
			c0,0.11,0,0.22,0.01,0.32c-0.12,0-0.24,0-0.37,0c0.01-0.12,0.01-0.24,0.01-0.37c0-0.12,0-0.23-0.01-0.33
			C70.69,6.77,70.81,6.77,70.94,6.76z M70.39,7.47c-0.09,0-0.18,0-0.28,0c0.01-0.12,0.01-0.24,0.01-0.38
			c-0.01-0.11-0.03-0.21-0.05-0.31c0.1,0,0.21-0.01,0.31-0.01c-0.01,0.1-0.01,0.21-0.01,0.33C70.37,7.24,70.38,7.36,70.39,7.47z
			 M69.91,7.11c0,0.13,0.01,0.25,0.02,0.37c-0.08,0-0.16,0-0.24,0c-0.08,0-0.16,0-0.24,0c0.01-0.1,0.01-0.2,0.01-0.31
			c0-0.12-0.01-0.23-0.02-0.34c0.15-0.01,0.29-0.02,0.44-0.03C69.89,6.9,69.9,7,69.91,7.11z M69.28,7.47c-0.14,0-0.27,0-0.4,0
			c0.02-0.13,0.04-0.29,0.04-0.47c0-0.05,0-0.09,0-0.13c0.12-0.01,0.24-0.02,0.37-0.03c-0.01,0.1-0.02,0.21-0.02,0.32
			C69.26,7.27,69.27,7.37,69.28,7.47z M68.75,7.46c-0.09,0-0.19,0-0.28,0c0.02-0.11,0.03-0.23,0.03-0.36c0-0.07-0.01-0.14-0.02-0.2
			c0.08-0.01,0.15-0.01,0.23-0.02c0,0.04,0,0.08,0,0.12C68.71,7.17,68.73,7.33,68.75,7.46z M68.3,7.1c0,0.13,0,0.24,0.01,0.35
			c-0.14,0-0.27-0.01-0.4-0.01c0.01-0.09,0.02-0.18,0.02-0.28c0-0.07,0-0.15-0.01-0.21c0.12-0.01,0.25-0.02,0.38-0.03
			C68.29,6.97,68.3,7.03,68.3,7.1z M67.73,7.43c-0.09,0-0.18-0.01-0.27-0.01c0.04-0.12,0.08-0.27,0.11-0.44
			c0.05,0,0.1-0.01,0.15-0.01c0,0.06-0.01,0.13-0.01,0.2C67.72,7.26,67.72,7.35,67.73,7.43z M67.28,7.16
			c0.02-0.02,0.04-0.04,0.07-0.07c-0.01,0.12-0.01,0.23,0,0.32c-0.02,0-0.04,0-0.06,0c-0.12,0.02-0.26-0.01-0.39-0.03
			C67.03,7.34,67.16,7.27,67.28,7.16z M73.15,7.99c-0.01,0-0.01,0-0.01,0C73.14,7.99,73.15,7.99,73.15,7.99
			c0.01,0.01,0.02,0.02,0.02,0.03c0.03,0.07,0.07,0.13,0.11,0.18c-0.15,0.12-0.78,0.16-1.15,0.19c-0.69,0.04-1.51,0.06-2.38,0.05
			c-0.85-0.01-1.65-0.04-2.33-0.11c-0.29-0.01-0.75-0.14-0.73-0.16c0.07-0.09,0.22-0.15,0.37-0.19c0.02,0.01,0.05,0.01,0.07,0.02
			c0.74,0.19,1.62,0.28,2.55,0.29c0.46,0,0.91-0.01,1.33-0.05c0,0.01,0,0.02,0.01,0.02l0,0.02c0-0.01,0.01-0.03,0.01-0.04
			c0.42-0.04,0.82-0.09,1.18-0.17c0.3-0.06,0.58-0.14,0.83-0.23C73.07,7.88,73.1,7.94,73.15,7.99z M73.19,7.22
			c0.06,0.07,0.1,0.14,0.12,0.21c-0.19,0.06-0.78,0.01-1.16,0.05c-0.32,0-0.67,0-1.03,0c0-0.1,0.01-0.21,0.01-0.32
			c0-0.14,0-0.27-0.01-0.39c0.59,0,1.09,0.04,1.39,0.15L72.88,7C73.01,7.06,73.11,7.13,73.19,7.22c-0.01,0-0.01,0-0.01-0.01
			C73.18,7.21,73.18,7.22,73.19,7.22z"/>
		<path class="st2" d="M67.21,12.01c-0.08,0.04-0.16,0.09-0.24,0.15c-0.08,0.06-0.15,0.12-0.23,0.18c-0.01,0.01-0.01,0.01-0.02,0.02
			c0.01,0.16-0.06,0.27-0.28,0.32c-0.03,0.04-0.06,0.08-0.08,0.12c-0.05,0.08-0.09,0.17-0.13,0.26c-0.24,0.55-0.25,1.14-0.09,1.71
			c0.03,0.11,0.07,0.22,0.11,0.33c0.14,0.31,0.32,0.6,0.53,0.86c0.07,0.09,0.14,0.17,0.21,0.26c0.08,0.1,0.18,0.19,0.26,0.29
			c0.1,0,0.21,0,0.36,0.01c0.18,0.15,0.15,0.27-0.02,0.34c0.48,0.47,0.98,0.92,1.45,1.41c0.06,0.06,0.12,0.12,0.18,0.19
			c0.3,0.32,0.6,0.63,0.92,0.94c0.07,0.07,0.14,0.14,0.21,0.22c0.41,0.42,0.82,0.85,1.2,1.3c0.31-0.46,0.65-0.91,1.01-1.35
			c0.06-0.07,0.12-0.15,0.18-0.22c0.27-0.32,0.52-0.65,0.77-0.97c0.05-0.06,0.1-0.13,0.15-0.19c0-0.01,0.01-0.01,0.01-0.02
			c-0.01,0-0.02,0-0.03,0c-0.85-0.02-0.73-0.74,0.27-0.55c0.04,0.04,0.08,0.08,0.11,0.12c0.47-0.55,0.97-1.08,1.37-1.67
			c0.06-0.09,0.12-0.18,0.17-0.27c0.17-0.27,0.3-0.56,0.39-0.87c0.03-0.11,0.05-0.22,0.07-0.34c0.07-0.57-0.03-1.16-0.35-1.7
			c-0.05-0.09-0.1-0.17-0.17-0.26c-0.13-0.16-0.28-0.31-0.46-0.44c-0.08-0.06-0.17-0.12-0.25-0.18c-0.09-0.06-0.17-0.1-0.27-0.14
			c-0.73-0.33-1.54-0.26-2.22,0.07c-0.66,0.33-1.06,0.97-1.33,1.62c-0.37-0.64-0.87-1.26-1.57-1.56
			C68.71,11.71,67.89,11.66,67.21,12.01z M71.36,14.69c0.33,0.04,0.66,0.07,0.57,0.28c0.25-0.09,0.09-0.37,0.41-0.42
			c0.31,0.22,0.71,0.56,1.27,0.5c-0.34,0.25,0.62,0.44,0.57,0.78c-0.81,0.06-1.57,0.05-2.52-0.24c0.2-0.44-0.28-0.14-0.57-0.53
			C71.13,14.9,71.26,14.8,71.36,14.69z M69.98,15.69c-0.12,0.11-0.39,0.14-0.28,0.36c-0.23-0.01-0.47-0.02-0.7-0.03
			c-0.15-0.19-0.32-0.38-0.29-0.64C69.53,15.32,69.48,15.61,69.98,15.69z"/>
		<path class="st1" d="M73.77,22.12c-1.39,0.03-2.82-0.04-4.21,0.01c-0.7,0.03-1.42,0.07-2.16,0.14c-0.67,0.22-1.39-0.12-2.09,0.62
			c-1.29-1.37-3.42-4.61-2.65-8.6c0.7-3.98,3.79-6.29,5.45-7.16l0.15-0.08c-1.76,0.35-5.58,2.57-6.4,7.09
			c-0.83,4.4,1.84,7.78,3.42,8.76c-0.05,0.06-0.1,0.12-0.15,0.18c3.17,1.24,5.92,0.71,8.39,0.8c1.08-0.07,2.17-0.06,3.24-0.21
			c0.4-0.05,1.66-0.18,1.98-0.65c0.06-0.08,0.08-0.17,0.07-0.28C78.74,22.1,74.31,22.11,73.77,22.12z"/>
		<g>
			<path class="st2" d="M93.18,14.62c0.22,0,0.5,0.28,0.5,1.5c0,3.15-1.38,5.3-3.85,5.3c-1.91,0-3.13-0.91-3.71-2.52
				c-0.66,1.47-1.91,2.52-3.51,2.52c-3.04,0-4.84-1.87-4.84-6.49s2.43-6.41,5.5-6.41c1.41,0,2.24,0.34,2.71,0.82
				c0.25-0.57,0.75-0.82,1.27-0.82c0.77,0,1.05,0.4,1.05,0.4v8.14c0,2.21,0.75,3.26,1.85,3.26c1.52,0,2.6-1.45,2.6-5.53
				C92.76,14.79,92.79,14.62,93.18,14.62z M85.79,16.49V12.6c0-1.87-1.13-2.98-2.27-2.98c-1.83,0-3.13,0.57-3.13,5.3
				c0,4.73,1.19,5.39,2.54,5.39C83.88,20.31,85.79,19.01,85.79,16.49z"/>
			<path class="st2" d="M95.33,21.02c0,0-0.28,0.4-1.05,0.4c-0.75,0-1.44-0.51-1.44-1.73V8.92c0,0,0.28-0.4,1.05-0.4
				c0.75,0,1.44,0.51,1.44,1.73v2.15c0.72-1.84,1.91-3.51,3.82-3.51c2.52,0,3.35,1.73,3.35,3.2c0,0.99-0.72,1.56-1.33,1.56
				c-0.66,0-0.83-0.34-0.83-0.34s0.17-0.43,0.17-1.05c0-1.28-0.8-2.27-1.8-2.27c-1.94,0-3.37,4.73-3.37,6.52V21.02z"/>
			<path class="st2" d="M109.36,21.42c-3.04,0-5.64-2.24-5.64-6.49c0-4.11,2.27-6.41,5.5-6.41c3.07,0,5.5,2.18,5.5,6.41
				C114.73,18.36,112.79,21.42,109.36,21.42z M109.36,20.31c1.47,0,2.21-0.74,2.52-2.47c-2.46-0.54-4.62-2.49-5.5-4.51
				c-0.03,0.48-0.03,1.02-0.03,1.59C106.35,18.78,107.23,20.31,109.36,20.31z M107.37,11.1c0,2.47,2.19,4.96,4.68,5.67
				c0.03-0.54,0.06-1.16,0.06-1.84c0-3.83-0.61-5.3-2.9-5.3C108.25,9.63,107.37,10.11,107.37,11.1z"/>
			<path class="st2" d="M123.66,12.89c0-2.49-0.66-3.37-1.66-3.37c-1.71,0-2.85,1.5-2.85,7.06c0,0,0,0.03,0,4.45
				c0,0-0.28,0.4-1.05,0.4c-0.75,0-1.44-0.51-1.44-1.73V8.92c0,0,0.28-0.4,1.05-0.4c0.75,0,1.44,0.51,1.44,1.73
				c0.61-1.11,1.6-1.73,3.18-1.73c1.63,0,2.93,0.77,3.54,2.3c0.61-1.47,1.72-2.3,3.51-2.3c2.32,0,3.93,1.53,3.93,4.51v4.03
				c0,2.21,0.75,3.26,1.85,3.26c1.24,0,2.6-1.16,2.6-5.53c0,0,0.03-0.17,0.42-0.17c0.22,0,0.5,0.28,0.5,1.5
				c0,3.15-1.38,5.3-3.85,5.3c-2.79,0-4.12-1.98-4.12-5.22v-3.32c0-2.49-0.66-3.37-1.66-3.37c-1.44,0-2.82,1.47-2.82,7.11v4.39
				c0,0-0.28,0.4-1.05,0.4c-0.75,0-1.52-0.51-1.52-1.73V12.89z"/>
			<path class="st2" d="M149.42,14.96c0.36,0,0.58,0.37,0.58,0.91c0,2.38-1.6,5.56-5.56,5.56c-4.07,0-6.61-2.15-6.61-6.21
				c0-4.42,2.43-6.69,5.5-6.69c2.52,0,3.35,1.73,3.35,3.2c0,2.83-2.54,4.93-6.14,4.93c0.36,2.49,1.85,3.66,3.9,3.66
				c2.19,0,4.56-1.53,4.56-5.19C149,15.13,149.03,14.96,149.42,14.96z M140.46,15.61c1.85-0.25,4.23-1.16,4.23-3.71
				c0-1.47-0.66-2.27-1.8-2.27c-1.72,0-2.43,1.53-2.43,5.73V15.61z"/>
		</g>
	</g>
	<g>
		<text transform="matrix(0.9761 0 0 1 -711.0658 165.3287)"><tspan x="0" y="0" class="st1" style="font-family:'Sofia-Regular'; font-size:38.6024px;">moon</tspan><tspan x="86.35" y="0" class="st2" style="font-family:'Sofia-Regular'; font-size:38.6024px;">  </tspan></text>
		<path class="st1" d="M-619.8,145.73l0.05,0.11c-0.09,0.04-0.17,0.09-0.25,0.13c0.04,0,0.11-0.01,0.19-0.01
			c-0.03,0.02-0.06,0.04-0.09,0.06c0,0.01,0.02,0.02,0.02,0.02c-0.04,0-0.08-0.01-0.12,0c-0.18,0-0.37,0.03-0.61,0.11
			c-0.15,0.02-0.37,0.4-0.11,0.61c0.16,0.15,0.24,0.16,0.38,0.25c0.13,0.05,0.26,0.1,0.39,0.14c-0.11,0.03-0.23,0.06-0.35,0.12
			c-0.2,0.38-0.02,0.54,0.24,0.63c0.24,0.09,0.54,0.11,0.69,0.19c0.96,0.21,2.1,0.31,3.32,0.32c1.2,0.01,2.34-0.07,3.3-0.22
			c0.48-0.07,0.91-0.18,1.29-0.32c0.06-0.03,0.13-0.06,0.2-0.1c0.12-0.07,0.23-0.16,0.21-0.31c-0.01-0.01-0.02-0.02-0.03-0.03
			c-0.01-0.09-0.03-0.19-0.07-0.28c-0.07-0.07-0.15-0.13-0.22-0.17c0.01-0.01,0.03-0.01,0.04-0.02c0.16-0.11,0.49-0.19,0.47-0.53
			c-0.09-0.13-0.17-0.17-0.25-0.18c-0.03-0.1-0.09-0.19-0.16-0.28l0.01-0.01c0.02,0.02,0.03,0.04,0.05,0.07l-0.11-0.19
			c-0.01-0.01-0.02-0.03-0.02-0.04c0-0.01-0.01-0.02-0.02-0.04c-0.45-1.17,1.5-2.46,1.09-4.66c-0.34-2.17-2.42-4.64-5.39-4.7
			c-2.93-0.03-5.11,2.34-5.51,4.49C-621.99,143.32-619.52,144.47-619.8,145.73z M-614.42,145.6c-0.01,0.17-0.01,0.35-0.01,0.54
			c0,0.15,0,0.3,0.01,0.43c-0.16,0-0.33,0-0.5,0c0.01-0.16,0.02-0.33,0.02-0.51c0-0.16-0.01-0.31-0.01-0.45
			C-614.75,145.61-614.58,145.6-614.42,145.6z M-615.17,146.57c-0.12,0-0.25,0-0.38,0c0.01-0.16,0.02-0.33,0.02-0.51
			c-0.02-0.15-0.04-0.29-0.06-0.42c0.14-0.01,0.28-0.01,0.42-0.02c-0.01,0.14-0.02,0.29-0.02,0.45
			C-615.19,146.24-615.18,146.41-615.17,146.57z M-615.81,146.07c0,0.18,0.02,0.34,0.03,0.5c-0.11,0-0.22,0-0.33,0
			c-0.11,0-0.22,0-0.32,0c0.01-0.13,0.02-0.27,0.02-0.42c0-0.16-0.01-0.32-0.02-0.46c0.2-0.01,0.4-0.02,0.6-0.03
			C-615.84,145.78-615.83,145.92-615.81,146.07z M-616.67,146.56c-0.18,0-0.37,0-0.54-0.01c0.03-0.18,0.05-0.4,0.05-0.64
			c0-0.06,0-0.12-0.01-0.18c0.17-0.01,0.33-0.02,0.5-0.04c-0.01,0.14-0.02,0.28-0.02,0.44
			C-616.69,146.29-616.69,146.43-616.67,146.56z M-617.4,146.55c-0.13,0-0.26,0-0.38-0.01c0.02-0.15,0.04-0.31,0.05-0.49
			c0-0.09-0.01-0.18-0.03-0.27c0.11-0.01,0.21-0.02,0.32-0.03c0,0.05-0.01,0.1-0.01,0.16C-617.45,146.15-617.43,146.37-617.4,146.55
			z M-618.01,146.05c-0.01,0.17,0,0.33,0.01,0.48c-0.18-0.01-0.37-0.01-0.54-0.01c0.01-0.12,0.02-0.25,0.02-0.38
			c0-0.1,0-0.2-0.01-0.29c0.16-0.02,0.34-0.03,0.52-0.05C-618.02,145.88-618.01,145.97-618.01,146.05z M-618.78,146.51
			c-0.13-0.01-0.25-0.01-0.37-0.02c0.06-0.16,0.11-0.37,0.15-0.6c0.07-0.01,0.14-0.01,0.21-0.02c-0.01,0.09-0.01,0.18-0.01,0.27
			C-618.8,146.27-618.8,146.4-618.78,146.51z M-619.39,146.14c0.03-0.03,0.06-0.06,0.09-0.09c-0.01,0.16-0.01,0.31,0,0.44
			c-0.02,0-0.05,0-0.08,0c-0.16,0.03-0.35-0.01-0.53-0.04C-619.74,146.38-619.55,146.29-619.39,146.14z M-611.41,147.27
			c-0.01,0-0.01,0-0.02,0c0.01,0.01,0.02,0.01,0.03,0.02c0.01,0.01,0.01,0.01,0.02,0.02c0.04,0.09,0.09,0.17,0.15,0.25
			c-0.21,0.16-1.06,0.22-1.57,0.25c-0.94,0.06-2.06,0.08-3.24,0.07c-1.16-0.01-2.25-0.05-3.17-0.15c-0.4-0.01-1.03-0.19-0.99-0.21
			c0.1-0.12,0.3-0.2,0.5-0.26c0.03,0.01,0.07,0.02,0.1,0.03c1.01,0.26,2.2,0.39,3.48,0.4c0.63,0.01,1.24-0.02,1.82-0.07
			c0,0.01,0,0.02,0.01,0.03l0,0.03c0.01-0.02,0.01-0.04,0.01-0.06c0.57-0.05,1.11-0.13,1.61-0.23c0.41-0.08,0.78-0.19,1.13-0.32
			C-611.52,147.12-611.47,147.2-611.41,147.27z M-611.35,146.22c0.08,0.09,0.13,0.19,0.17,0.28c-0.26,0.08-1.06,0.01-1.58,0.07
			c-0.43,0.01-0.91,0.01-1.4,0c0.01-0.14,0.01-0.28,0.01-0.44c0-0.19-0.01-0.37-0.01-0.54c0.8,0.01,1.49,0.06,1.89,0.2l0.51,0.12
			C-611.59,146-611.45,146.1-611.35,146.22c-0.01-0.01-0.01-0.01-0.02-0.01C-611.36,146.22-611.36,146.22-611.35,146.22z"/>
		<path class="st2" d="M-619.49,152.74c-0.11,0.06-0.22,0.13-0.33,0.2c-0.11,0.08-0.21,0.16-0.31,0.25
			c-0.01,0.01-0.02,0.02-0.03,0.03c0.02,0.22-0.08,0.37-0.39,0.43c-0.04,0.05-0.08,0.1-0.11,0.16c-0.07,0.11-0.13,0.23-0.18,0.35
			c-0.32,0.75-0.34,1.56-0.12,2.32c0.04,0.15,0.09,0.31,0.16,0.45c0.19,0.42,0.44,0.81,0.72,1.18c0.09,0.12,0.19,0.24,0.29,0.36
			c0.11,0.14,0.24,0.26,0.36,0.39c0.14-0.01,0.29,0,0.49,0.02c0.24,0.2,0.21,0.37-0.02,0.47c0.65,0.64,1.34,1.26,1.98,1.92
			c0.08,0.08,0.16,0.17,0.25,0.25c0.41,0.43,0.82,0.86,1.25,1.29c0.09,0.1,0.19,0.2,0.29,0.3c0.56,0.58,1.11,1.16,1.63,1.77
			c0.42-0.63,0.89-1.24,1.37-1.84c0.08-0.1,0.16-0.2,0.25-0.3c0.36-0.44,0.71-0.88,1.05-1.32c0.07-0.09,0.14-0.18,0.21-0.26
			c0.01-0.01,0.01-0.02,0.02-0.02c-0.02,0-0.02,0-0.04,0c-1.16-0.03-1-1.01,0.37-0.75c0.06,0.05,0.11,0.11,0.15,0.17
			c0.65-0.75,1.33-1.47,1.87-2.27c0.08-0.12,0.16-0.24,0.23-0.36c0.22-0.37,0.41-0.76,0.54-1.19c0.04-0.15,0.07-0.3,0.09-0.46
			c0.1-0.77-0.04-1.58-0.47-2.32c-0.06-0.12-0.14-0.24-0.23-0.35c-0.17-0.22-0.38-0.43-0.62-0.6c-0.11-0.09-0.23-0.17-0.34-0.24
			c-0.12-0.08-0.24-0.14-0.36-0.19c-0.99-0.44-2.1-0.35-3.02,0.1c-0.9,0.45-1.44,1.32-1.81,2.21c-0.5-0.87-1.18-1.72-2.13-2.13
			C-617.45,152.33-618.57,152.27-619.49,152.74z M-613.83,156.39c0.45,0.05,0.9,0.1,0.77,0.38c0.34-0.12,0.12-0.51,0.56-0.57
			c0.42,0.3,0.97,0.77,1.73,0.68c-0.47,0.34,0.85,0.6,0.78,1.06c-1.11,0.09-2.14,0.07-3.44-0.33c0.27-0.6-0.39-0.19-0.78-0.72
			C-614.15,156.69-613.98,156.54-613.83,156.39z M-615.72,157.75c-0.17,0.14-0.53,0.19-0.38,0.49c-0.32-0.01-0.64-0.03-0.96-0.05
			c-0.21-0.26-0.43-0.51-0.39-0.87C-616.33,157.26-616.4,157.66-615.72,157.75z"/>
		<path class="st1" d="M-610.56,166.52c-1.89,0.04-3.83-0.06-5.73,0.02c-0.96,0.04-1.94,0.1-2.95,0.2c-0.92,0.3-1.89-0.16-2.84,0.85
			c-1.76-1.86-4.65-6.28-3.61-11.71c0.95-5.42,5.17-8.56,7.43-9.75l0.2-0.11c-2.39,0.47-7.59,3.5-8.71,9.66
			c-1.13,5.99,2.51,10.59,4.66,11.94c-0.07,0.08-0.14,0.16-0.21,0.25c4.32,1.68,8.07,0.97,11.42,1.09c1.47-0.1,2.95-0.09,4.41-0.28
			c0.54-0.07,2.26-0.25,2.7-0.88c0.08-0.11,0.11-0.24,0.1-0.38C-603.79,166.49-609.82,166.51-610.56,166.52z"/>
		
			<text transform="matrix(0.9761 0 0 1 -605.1127 165.444)" class="st2" style="font-family:'Sofia-Regular'; font-size:38.6024px;">arome</text>
	</g>
</g>
</svg>
