<?xml version="1.0" encoding="utf-8"?>
<!-- Generator: Adobe Illustrator 26.2.1, SVG Export Plug-In . SVG Version: 6.00 Build 0)  -->
<svg version="1.1" xmlns="http://www.w3.org/2000/svg" xmlns:xlink="http://www.w3.org/1999/xlink" x="0px" y="0px"
	 viewBox="0 0 82.66 85" style="enable-background:new 0 0 82.66 85;" xml:space="preserve">
<style type="text/css">
	.st0{fill:#FFFFFF;}
	.st1{fill:#9C3E6B;}
	.st2{fill:#1C1B1B;}
</style>
<g id="BG">
	<rect x="-1292.02" y="-158.9" class="st0" width="1122" height="1122"/>
</g>
<g id="Object">
	
		<text transform="matrix(0.9761 0 0 1 192.9068 -298.9367)" class="st1" style="font-family:'Sofia-Regular'; font-size:42.1721px;">moon arome</text>
	<g>
		<g>
			<path class="st1" d="M5.99,25.77c-1.42-0.69-2.1-0.54-2.39,0.04c-0.48,1,0.05,2.07,3.21,3.6c0,0,0.02,0.01,2.53,1.23
				c0,0,0.15,0.27-0.07,0.72c-0.21,0.43-0.7,0.7-1.39,0.36l-6.12-2.97c0,0-0.15-0.27,0.07-0.72c0.21-0.43,0.7-0.7,1.39-0.36
				c-0.46-0.66-0.53-1.41-0.09-2.33c0.46-0.95,1.26-1.5,2.3-1.43c-0.67-0.76-0.82-1.63-0.31-2.68c0.66-1.35,1.98-1.87,3.67-1.05
				l2.29,1.11c1.26,0.61,2.06,0.46,2.38-0.18c0.35-0.72,0.07-1.83-2.41-3.04c0,0-0.09-0.06,0.02-0.29c0.06-0.13,0.3-0.21,0.99,0.12
				c1.79,0.87,2.62,2.26,1.93,3.7c-0.79,1.63-2.29,1.85-4.13,0.96l-1.88-0.91c-1.42-0.69-2.1-0.54-2.39,0.04
				c-0.41,0.84,0.04,2.05,3.25,3.6l2.5,1.21c0,0,0.15,0.27-0.07,0.72c-0.21,0.43-0.72,0.75-1.41,0.41L5.99,25.77z"/>
			<path class="st1" d="M17.2,18.21c-1.36,1.42-3.55,1.66-5.49-0.2c-1.87-1.8-1.91-3.86-0.46-5.37c1.37-1.44,3.46-1.62,5.39,0.23
				C18.2,14.37,18.73,16.61,17.2,18.21z M11.6,14.64c1.13,1.08,3.24,1.15,4.68,0.29c-0.23-0.25-0.51-0.53-0.82-0.83
				c-1.75-1.67-2.69-2.03-3.72-0.96C11.32,13.58,11.15,14.2,11.6,14.64z M16.69,17.73c0.66-0.69,0.65-1.36,0-2.25
				c-1.35,0.92-3.21,1.07-4.52,0.6c0.21,0.22,0.45,0.46,0.71,0.71C14.64,18.47,15.74,18.73,16.69,17.73z"/>
			<path class="st1" d="M23,13.29c-1.66,1.06-3.84,0.78-5.29-1.48c-1.4-2.19-0.95-4.2,0.82-5.33c1.67-1.07,3.74-0.76,5.18,1.49
				C24.88,9.79,24.87,12.09,23,13.29z M18.4,8.5c0.84,1.31,2.88,1.88,4.48,1.38c-0.17-0.3-0.37-0.64-0.6-1
				c-1.3-2.04-2.14-2.61-3.39-1.81C18.38,7.41,18.06,7.97,18.4,8.5z M22.63,12.7c0.8-0.51,0.96-1.16,0.53-2.19
				c-1.53,0.57-3.37,0.29-4.54-0.48c0.15,0.27,0.33,0.55,0.53,0.85C20.46,12.94,21.46,13.45,22.63,12.7z"/>
			<path class="st1" d="M34.08,3.95c0.14-0.04,0.36,0.07,0.6,0.8c0.62,1.89,0.19,3.46-1.33,3.95c-1.72,0.56-2.92-0.36-3.56-2.3
				l-0.65-1.99c-0.49-1.5-1.07-1.89-1.68-1.69c-1.04,0.34-1.78,1.54-0.75,4.67l0.95,2.91c0,0-0.09,0.29-0.57,0.45
				c-0.46,0.15-0.99-0.02-1.22-0.75l-2.11-6.47c0,0,0.09-0.29,0.57-0.45c0.46-0.15,0.97-0.02,1.3,0.99
				c0.19-0.97,0.77-1.67,1.85-2.02c1.43-0.47,2.72,0.13,3.3,1.92l0.79,2.42c0.43,1.33,1.1,1.81,1.78,1.59
				c0.77-0.25,1.37-1.22,0.52-3.84C33.86,4.14,33.84,4.03,34.08,3.95z"/>
			<path class="st1" d="M50.54,4.71c0.14,0.02,0.3,0.22,0.19,0.98c-0.26,1.97-1.33,3.2-2.91,2.99c-1.22-0.16-1.93-0.84-2.17-1.9
				c-0.55,0.87-1.44,1.41-2.46,1.28c-1.95-0.26-2.95-1.59-2.56-4.48c0.39-2.89,2.1-3.8,4.07-3.54c0.9,0.12,1.41,0.41,1.67,0.75
				c0.21-0.33,0.55-0.45,0.89-0.41c0.5,0.07,0.64,0.34,0.64,0.34l-0.68,5.09c-0.19,1.38,0.21,2.1,0.92,2.2
				c0.98,0.13,1.79-0.68,2.13-3.24C50.25,4.78,50.29,4.68,50.54,4.71z M45.64,5.25l0.33-2.43c0.16-1.17-0.48-1.96-1.2-2.06
				c-1.17-0.16-2.05,0.09-2.45,3.05c-0.4,2.96,0.31,3.47,1.18,3.59C44.1,7.48,45.43,6.82,45.64,5.25z"/>
			<path class="st1" d="M50.56,9.26c0,0-0.26,0.17-0.72-0.01c-0.45-0.18-0.75-0.64-0.47-1.36l2.46-6.34c0,0,0.26-0.17,0.72,0.01
				C53,1.74,53.3,2.2,53.03,2.92l-0.49,1.27c0.86-0.92,1.96-1.62,3.11-1.17c1.52,0.59,1.62,1.8,1.29,2.67
				c-0.23,0.58-0.79,0.75-1.16,0.61c-0.4-0.16-0.42-0.39-0.42-0.39s0.2-0.21,0.34-0.58c0.29-0.75,0.03-1.52-0.57-1.76
				c-1.17-0.45-3.12,2-3.53,3.05L50.56,9.26z"/>
			<path class="st1" d="M57.96,13.1c-1.64-1.09-2.25-3.2-0.76-5.44c1.44-2.16,3.47-2.55,5.21-1.39c1.65,1.1,2.2,3.13,0.71,5.34
				C61.92,13.42,59.8,14.33,57.96,13.1z M58.34,12.52c0.79,0.53,1.45,0.41,2.22-0.39c-1.14-1.17-1.61-2.97-1.38-4.35
				C59,8.03,58.81,8.31,58.61,8.61C57.26,10.63,57.2,11.75,58.34,12.52z M60.5,6.97c-0.86,1.3-0.56,3.39,0.53,4.66
				c0.2-0.27,0.44-0.59,0.68-0.95c1.34-2.01,1.53-3,0.3-3.83C61.5,6.51,60.85,6.45,60.5,6.97z"/>
			<path class="st1" d="M68.48,14.98c1.23-0.98,1.4-1.66,1-2.16c-0.69-0.87-1.89-0.86-4.64,1.32c0,0-0.01,0.01-2.2,1.75
				c0,0-0.31,0.02-0.62-0.38c-0.3-0.38-0.33-0.93,0.28-1.41l5.33-4.22c0,0,0.31-0.02,0.62,0.38c0.3,0.38,0.33,0.93-0.28,1.41
				c0.79-0.13,1.5,0.14,2.13,0.93c0.66,0.83,0.8,1.79,0.29,2.7c0.97-0.27,1.83-0.03,2.55,0.88c0.93,1.18,0.82,2.59-0.65,3.76
				l-1.99,1.58c-1.09,0.87-1.31,1.66-0.87,2.22c0.5,0.63,1.62,0.86,3.78-0.85c0,0,0.09-0.05,0.25,0.14
				c0.09,0.11,0.06,0.36-0.54,0.84c-1.56,1.23-3.18,1.38-4.17,0.13c-1.12-1.42-0.67-2.87,0.92-4.14l1.64-1.3
				c1.23-0.98,1.4-1.66,1-2.16c-0.58-0.73-1.86-0.85-4.65,1.36l-2.17,1.72c0,0-0.31,0.02-0.62-0.38c-0.3-0.38-0.36-0.97,0.24-1.45
				L68.48,14.98z"/>
			<path class="st1" d="M75.61,30.43c0.09,0.22-0.08,0.43-0.4,0.56c-1.4,0.55-3.65,0.31-4.58-2.07c-0.96-2.45-0.29-4.48,2.09-5.41
				c2.6-1.02,4.51-0.08,5.23,1.77c0.59,1.52-0.23,2.41-1.09,2.75c-1.67,0.65-3.5-0.4-4.35-2.56c-1.38,0.79-1.71,1.96-1.23,3.19
				c0.52,1.32,1.98,2.4,4.13,1.55C75.41,30.22,75.52,30.19,75.61,30.43z M73.11,25.18c0.59,1.06,1.68,2.28,3.18,1.69
				c0.87-0.34,1.18-0.92,0.91-1.61c-0.4-1.03-1.47-1.11-3.94-0.15L73.11,25.18z"/>
		</g>
		<g>
			<path d="M17.31,73.34c-0.59-0.38-1.13-1.23-0.36-2.42c0.9-1.4,2.26-1.79,3.71-1.63c-0.03-0.49-0.29-0.77-0.58-0.96
				c-0.57-0.36-1.87-0.41-2.87,1.17l-4.42,6.91c0,0-0.22,0.09-0.55-0.12c-0.31-0.2-0.47-0.59-0.15-1.09l5.62-8.79
				c0,0,0.22-0.09,0.54,0.12c0.31,0.2,0.47,0.59,0.15,1.09l-0.16,0.26c0.7-0.33,1.56-0.36,2.26,0.09c0.59,0.38,1,0.89,1.14,1.51
				c1.04,0.27,2.09,0.78,2.98,1.35c0.27,0.17,0.2,0.37,0.15,0.46c-0.06,0.09-0.18,0.13-0.18,0.13c-0.68-0.44-1.75-0.99-2.9-1.3
				c-0.02,0.57-0.25,1.23-0.71,1.95C19.95,73.68,18.5,74.11,17.31,73.34z M20.57,69.92c-1.17-0.08-2.31,0.24-3.06,1.41
				c-0.47,0.73-0.31,1.31,0.06,1.54c0.59,0.38,1.21,0.2,2.31-1.52C20.25,70.78,20.46,70.31,20.57,69.92z"/>
			<path d="M28.39,75.31c0.17,0.07,0.2,0.28,0.1,0.52c-0.44,1.07-1.76,2.2-3.58,1.46c-1.88-0.76-2.65-2.21-1.91-4.04
				c0.81-1.99,2.35-2.55,3.77-1.98c1.16,0.47,1.23,1.41,0.96,2.07c-0.52,1.28-2.08,1.74-3.74,1.07c-0.29,1.19,0.18,1.99,1.13,2.38
				c1.01,0.41,2.39,0.17,3.06-1.48C28.17,75.31,28.21,75.24,28.39,75.31z M24.14,73.92c0.9,0.23,2.16,0.27,2.63-0.88
				c0.27-0.66,0.11-1.15-0.41-1.36c-0.79-0.32-1.4,0.23-2.17,2.12L24.14,73.92z"/>
			<path d="M29.21,78.53c0,0-0.18,0.16-0.55,0.07c-0.36-0.09-0.64-0.41-0.5-0.98l1.21-5.09c0,0,0.18-0.16,0.55-0.07
				c0.36,0.09,0.64,0.41,0.5,0.98l-0.24,1.02c0.56-0.79,1.32-1.44,2.24-1.22c1.22,0.29,1.43,1.2,1.26,1.9
				c-0.11,0.47-0.52,0.65-0.82,0.58c-0.32-0.08-0.36-0.26-0.36-0.26s0.13-0.18,0.2-0.48c0.14-0.6-0.13-1.16-0.62-1.28
				c-0.94-0.22-2.17,1.85-2.37,2.69L29.21,78.53z"/>
			<path d="M35.76,74.32l-1.11,10.54c0,0-0.16,0.18-0.54,0.14c-0.37-0.04-0.69-0.32-0.62-0.91l1.27-12.03
				c0.23-2.22,0.74-3.34,2.04-3.21c0.9,0.1,1.29,0.73,1.16,1.98c-0.18,1.74-1.05,2.62-1.76,3.06l1.22,0.13
				c0.4,0.04,0.45,0.2,0.42,0.53L35.76,74.32z M37.37,70.78c0.1-0.93-0.14-1.34-0.52-1.38c-0.45-0.05-0.57,0.4-1.01,4.16
				C36.39,73.24,37.18,72.52,37.37,70.78z"/>
			<path d="M45.99,76.69c0.11,0,0.25,0.13,0.28,0.72c0.06,1.53-0.59,2.6-1.81,2.65c-0.99,0.04-1.63-0.42-1.95-1.23
				c-0.31,0.85-0.94,1.35-1.92,1.39c-1.1,0.04-1.93-0.6-1.98-1.92l-0.14-3.43c-0.02-0.59,0.31-0.85,0.68-0.87
				c0.39-0.02,0.53,0.17,0.53,0.17l0.16,3.95c0.05,1.21,0.4,1.62,0.89,1.61c0.73-0.03,1.59-0.96,1.51-2.9l-0.08-2.11
				c-0.02-0.59,0.38-0.86,0.75-0.87c0.39-0.02,0.53,0.17,0.54,0.17l0.16,3.95c0.04,1.07,0.43,1.57,0.98,1.55
				c0.48-0.02,1.28-0.48,1.19-2.74C45.78,76.78,45.79,76.7,45.99,76.69z"/>
			<path d="M49.68,74.93c-0.35-1.16-0.79-1.47-1.26-1.33c-0.82,0.25-1.15,1.11-0.37,3.69c0,0,0,0.01,0.62,2.07
				c0,0-0.08,0.22-0.45,0.34c-0.36,0.11-0.76-0.03-0.93-0.6l-1.51-5.01c0,0,0.08-0.22,0.45-0.34c0.36-0.11,0.76,0.03,0.93,0.6
				c0.13-0.6,0.52-1.04,1.27-1.26c0.78-0.24,1.51-0.07,2.01,0.56c0.08-0.77,0.5-1.32,1.35-1.57c1.11-0.33,2.09,0.15,2.51,1.53
				l0.57,1.87c0.31,1.03,0.81,1.41,1.34,1.25c0.59-0.18,1.08-0.91,0.46-2.95c0,0-0.01-0.08,0.17-0.14c0.11-0.03,0.28,0.06,0.45,0.63
				c0.44,1.46,0.08,2.67-1.09,3.02c-1.33,0.4-2.24-0.33-2.7-1.83l-0.47-1.54c-0.35-1.16-0.79-1.47-1.26-1.33
				c-0.69,0.21-1.14,1.09-0.35,3.72l0.62,2.04c0,0-0.08,0.22-0.45,0.34c-0.36,0.11-0.8-0.02-0.97-0.59L49.68,74.93z"/>
			<path d="M62.28,70.46c0.16-0.09,0.34,0.01,0.47,0.24c0.57,1.01,0.64,2.74-1.07,3.72c-1.76,1-3.38,0.72-4.35-0.99
				c-1.06-1.87-0.56-3.42,0.77-4.18c1.09-0.62,1.86-0.1,2.22,0.53c0.68,1.2,0.09,2.71-1.47,3.6c0.76,0.96,1.68,1.09,2.57,0.58
				c0.95-0.54,1.61-1.77,0.73-3.32C62.14,70.63,62.11,70.55,62.28,70.46z M58.56,72.95c0.74-0.57,1.55-1.53,0.94-2.61
				c-0.35-0.62-0.83-0.79-1.32-0.51c-0.74,0.42-0.68,1.25,0.33,3.02L58.56,72.95z"/>
			<path d="M61.59,68.86c-0.52-0.67-0.33-1.57,0.89-2.56c1.17-0.94,2.22-0.95,2.62-0.46c0.22,0.28,0.1,0.63-0.12,0.8
				c-0.26,0.21-0.43,0.13-0.43,0.13s0-0.13-0.13-0.3c-0.31-0.39-1.09-0.17-1.56,0.21c-0.54,0.43-0.82,0.96-0.49,1.37
				c0.94,1.17,3.65-1.52,4.98,0.13c0.77,0.96,0.15,2.12-1.06,3.1c-1.33,1.07-2.9,0.88-3.77-0.2c-0.33-0.41-0.34-0.79-0.09-0.99
				c0.26-0.21,0.4-0.11,0.4-0.11s0.07,0.21,0.25,0.45c0.73,0.91,1.9,1.22,2.92,0.39c0.75-0.6,0.95-1.15,0.5-1.73
				C65.53,67.84,62.9,70.55,61.59,68.86z"/>
		</g>
		<g>
			<g>
				<path class="st2" d="M59.55,43.53c-2.39-8.95-10.34-13.02-14.01-13.47c3.47,1.44,10.28,5.75,12.43,13.89
					c0.03,0.09,0.05,0.19,0.07,0.28c-0.04,0.04-0.06,0.1-0.07,0.16c-0.01-0.01-0.03-0.01-0.04-0.02c-0.16-0.06-0.33-0.04-0.48,0.03
					l-0.01,0c0.03,0.14,0.18,0.29,0.39,0.36c0.12,0.04,0.24,0.02,0.34-0.02c0.03,0.13,0.05,0.25,0.08,0.38
					c-0.11-0.02-0.23-0.03-0.36-0.03c-0.38,0-0.71,0.08-0.89,0.2l-0.01,0.01c0.17,0.13,0.51,0.21,0.9,0.21
					c0.16,0,0.3-0.02,0.43-0.04c0.03,0.19,0.07,0.37,0.1,0.55c-0.13-0.02-0.27-0.03-0.41-0.03c-0.42,0-0.79,0.08-1,0.2l-0.02,0.01
					c0.2,0.12,0.58,0.21,1.01,0.21c0.17,0,0.32-0.02,0.46-0.04c0.03,0.18,0.05,0.36,0.07,0.54c-0.1-0.01-0.2-0.01-0.31-0.01
					c-0.42,0-0.79,0.08-0.99,0.2l-0.02,0.01c0.2,0.13,0.58,0.21,1.01,0.21c0.12,0,0.24-0.01,0.35-0.02c0.02,0.25,0.04,0.5,0.06,0.75
					c-0.16-0.03-0.33-0.05-0.51-0.05c-0.44-0.08-0.85-0.07-1.11,0.01l-0.02,0c0.17,0.16,0.6,0.32,1.1,0.41
					c0.2,0.01,0.39-0.01,0.56-0.03c0.01,0.2,0.01,0.4,0.01,0.6c-0.06-0.02-0.11-0.04-0.17-0.06c-0.31-0.09-0.6-0.09-0.81-0.03
					l-0.02,0c0.09,0.15,0.38,0.33,0.75,0.43c0.09,0.03,0.17,0.04,0.25,0.05c0,0.22-0.01,0.44-0.02,0.66
					c-0.09-0.01-0.19-0.02-0.29-0.03c-0.35-0.08-0.68-0.07-0.89,0.01l-0.02,0c0.13,0.16,0.46,0.32,0.87,0.4c0.11,0,0.22,0,0.32-0.01
					c-0.01,0.17-0.03,0.34-0.04,0.52c-0.13-0.04-0.28-0.08-0.44-0.1c-0.38-0.05-0.74-0.02-0.92,0.08l-0.02,0
					c0.18,0.15,0.48,0.28,0.87,0.33c0.17,0.02,0.33,0.02,0.47,0.01c-0.02,0.22-0.05,0.45-0.08,0.67c-0.22-0.06-0.49-0.11-0.8-0.11
					c-0.44-0.08-0.85-0.07-1.11,0.01l-0.02,0c0.17,0.16,0.6,0.32,1.1,0.4c0.3,0.01,0.58-0.02,0.8-0.07
					c-0.05,0.33-0.1,0.65-0.17,0.97c-0.2-0.15-0.57-0.3-1.03-0.39c-0.45-0.09-0.87-0.09-1.13-0.02l-0.02,0
					c0.18,0.16,0.59,0.33,1.09,0.43c0.43,0.08,0.81,0.09,1.07,0.03c-0.03,0.17-0.07,0.34-0.11,0.51c-0.25-0.07-0.57-0.14-0.91-0.16
					c-0.58-0.05-1.08-0.01-1.35,0.09l-0.02,0c0.26,0.15,0.75,0.27,1.32,0.32c0.34,0.03,0.65,0.03,0.91,0
					c-0.06,0.26-0.13,0.52-0.2,0.78c-0.23-0.06-0.49-0.12-0.78-0.15c-0.62-0.01-1.17,0.06-1.46,0.17l-0.03,0.01
					c0.29,0.13,0.83,0.22,1.46,0.24c0.26,0.03,0.49,0.05,0.71,0.05c-0.05,0.17-0.1,0.33-0.15,0.5c-0.29-0.12-0.72-0.24-1.21-0.29
					c-0.62-0.01-1.17,0.06-1.46,0.17l-0.03,0.01c0.29,0.13,0.83,0.22,1.46,0.24c0.45,0.05,0.87,0.07,1.18,0.04
					c-0.08,0.26-0.17,0.51-0.26,0.76c-0.27-0.26-0.84-0.58-1.54-0.59c-0.75,0-1.37,0.1-1.71,0.23l-0.03,0.01
					c0.33,0.11,1,0.18,1.72,0.18c0.66,0.02,1.16,0.17,1.54,0.25c-0.1,0.27-0.2,0.54-0.31,0.79c-0.32-0.2-0.83-0.41-1.44-0.49
					c-0.72-0.1-1.34-0.11-1.71-0.05l-0.03,0c0.3,0.18,0.94,0.37,1.67,0.46c0.58,0.08,1.08,0.17,1.45,0.2
					c-0.12,0.29-0.24,0.56-0.36,0.83c-0.36-0.17-0.93-0.34-1.6-0.46c-0.75-0.14-1.42-0.19-1.81-0.14h-0.03
					c0.32,0.19,0.98,0.4,1.76,0.54c0.65,0.12,1.24,0.17,1.63,0.15c-0.25,0.53-0.5,1.02-0.76,1.48c-0.26-0.33-0.88-0.8-1.72-0.92
					c-0.86-0.11-1.61-0.03-2.01,0.09l-0.03,0.01c0.39,0.13,1.14,0.21,1.98,0.31c0.78,0.12,1.35,0.39,1.76,0.55
					c-0.47,0.84-0.95,1.55-1.39,2.13l-0.2,0.28C57.19,60.12,62.01,52.53,59.55,43.53z"/>
				<path class="st2" d="M54.56,41.95c-2.89-8.75-12-10.75-15.4-9.87c3.55-0.09,11.62,2.31,14.22,10.25
					c2.5,7.76-2.42,14.37-5.49,16.34l-0.26,0.21C50.92,57.76,57.4,50.84,54.56,41.95z"/>
				<path class="st2" d="M43.44,61.12c-2.81,0.07-5.71-0.08-8.54,0.02c-1.43,0.06-2.89,0.14-4.39,0.29
					c-1.37,0.45-2.82-0.24-4.23,1.26c-2.62-2.78-6.93-9.35-5.37-17.45c1.42-8.07,7.7-12.76,11.07-14.52l0.3-0.17
					c-3.57,0.71-11.31,5.22-12.98,14.39c-1.69,8.93,3.74,15.78,6.94,17.78c-0.11,0.11-0.21,0.23-0.31,0.37
					c6.44,2.51,12.02,1.44,17.02,1.63c2.18-0.14,4.39-0.13,6.57-0.42c0.81-0.11,3.37-0.37,4.03-1.31c0.12-0.17,0.17-0.35,0.15-0.57
					C53.52,61.08,44.54,61.1,43.44,61.12z"/>
				<path class="st2" d="M32.85,26.75l0.08,0.17c-0.13,0.06-0.25,0.13-0.37,0.2c0.07,0,0.16-0.01,0.29-0.02
					c-0.04,0.03-0.08,0.06-0.14,0.09c0.01,0.01,0.02,0.02,0.03,0.04c-0.06,0-0.12-0.01-0.18-0.01c-0.26,0.01-0.56,0.04-0.91,0.17
					c-0.22,0.03-0.56,0.6-0.16,0.91c0.24,0.23,0.36,0.24,0.57,0.37c0.19,0.07,0.39,0.14,0.59,0.21c-0.17,0.04-0.34,0.09-0.53,0.17
					c-0.29,0.56-0.02,0.81,0.36,0.94c0.36,0.13,0.81,0.17,1.02,0.28c1.43,0.32,3.13,0.45,4.95,0.48c1.79,0.02,3.48-0.1,4.91-0.33
					c0.71-0.11,1.36-0.27,1.92-0.48c0.09-0.04,0.19-0.09,0.29-0.14c0.18-0.1,0.34-0.24,0.32-0.47c-0.01-0.02-0.03-0.03-0.04-0.05
					c-0.01-0.13-0.04-0.28-0.11-0.42c-0.11-0.11-0.22-0.2-0.32-0.26c0.02-0.01,0.04-0.02,0.06-0.02c0.24-0.16,0.72-0.28,0.69-0.79
					c-0.13-0.19-0.26-0.25-0.37-0.27c-0.05-0.14-0.13-0.28-0.23-0.41l0.01-0.01c0.02,0.03,0.05,0.06,0.07,0.1l-0.16-0.28
					c-0.01-0.02-0.02-0.04-0.03-0.06c0-0.02-0.01-0.03-0.02-0.06c-0.67-1.75,2.23-3.66,1.62-6.95c-0.51-3.24-3.61-6.92-8.04-7
					c-4.37-0.05-7.61,3.49-8.22,6.68C29.59,23.16,33.26,24.87,32.85,26.75z M40.86,26.55c-0.01,0.25-0.02,0.52-0.02,0.8
					c0,0.22,0.01,0.44,0.01,0.65c-0.24,0-0.5,0-0.75,0c0.02-0.24,0.03-0.49,0.03-0.75c0-0.24-0.01-0.46-0.02-0.68
					C40.37,26.56,40.62,26.55,40.86,26.55z M39.75,27.99c-0.18,0-0.37,0-0.56,0c0.02-0.24,0.03-0.49,0.02-0.76
					c-0.03-0.22-0.06-0.43-0.1-0.62c0.21-0.01,0.42-0.02,0.63-0.03c-0.01,0.21-0.02,0.43-0.02,0.67
					C39.72,27.51,39.73,27.76,39.75,27.99z M38.79,27.25c0.01,0.26,0.02,0.51,0.05,0.74c-0.17,0-0.33,0-0.5,0
					c-0.16,0-0.32,0-0.48-0.01c0.02-0.2,0.03-0.4,0.03-0.63c0-0.24-0.01-0.47-0.03-0.68c0.3-0.02,0.59-0.04,0.89-0.05
					C38.75,26.82,38.77,27.03,38.79,27.25z M37.5,27.97c-0.27,0-0.54-0.01-0.81-0.01c0.05-0.27,0.07-0.59,0.07-0.95
					c0-0.09-0.01-0.18-0.01-0.27c0.25-0.02,0.5-0.04,0.75-0.05c-0.02,0.21-0.03,0.42-0.03,0.66C37.48,27.57,37.49,27.78,37.5,27.97z
					 M36.43,27.96c-0.19,0-0.38-0.01-0.57-0.01c0.03-0.22,0.06-0.46,0.07-0.73c0-0.14-0.02-0.27-0.04-0.4
					c0.16-0.01,0.31-0.03,0.47-0.04c0,0.08-0.01,0.16-0.01,0.24C36.35,27.37,36.38,27.69,36.43,27.96z M35.51,27.22
					c-0.01,0.26,0,0.5,0.02,0.72c-0.28-0.01-0.55-0.01-0.81-0.02c0.02-0.18,0.03-0.37,0.03-0.57c0-0.15-0.01-0.3-0.02-0.43
					c0.24-0.02,0.5-0.04,0.77-0.07C35.5,26.97,35.51,27.09,35.51,27.22z M34.36,27.91c-0.19-0.01-0.37-0.02-0.55-0.03
					c0.09-0.24,0.17-0.55,0.22-0.9c0.1-0.01,0.21-0.02,0.31-0.03c-0.01,0.13-0.01,0.26-0.01,0.4
					C34.33,27.55,34.34,27.73,34.36,27.91z M33.46,27.36c0.05-0.04,0.09-0.09,0.14-0.13c-0.02,0.24-0.02,0.46-0.01,0.65
					c-0.04,0-0.08,0-0.11-0.01c-0.24,0.04-0.53-0.01-0.79-0.06C32.94,27.71,33.21,27.57,33.46,27.36z M45.35,29.03
					c-0.01,0-0.02,0-0.03,0c0.02,0.01,0.03,0.02,0.04,0.02c0.01,0.01,0.02,0.02,0.03,0.03c0.06,0.14,0.14,0.26,0.23,0.37
					c-0.31,0.24-1.58,0.33-2.34,0.38c-1.4,0.09-3.07,0.12-4.83,0.1c-1.73-0.02-3.35-0.07-4.72-0.23c-0.6-0.02-1.53-0.29-1.48-0.32
					c0.15-0.17,0.45-0.29,0.75-0.39c0.05,0.01,0.1,0.03,0.15,0.04c1.51,0.39,3.28,0.58,5.18,0.59c0.94,0.01,1.85-0.03,2.7-0.1
					c0.01,0.01,0.01,0.03,0.01,0.05l0.01,0.04c0.01-0.03,0.01-0.06,0.02-0.09c0.85-0.07,1.66-0.19,2.39-0.34
					c0.61-0.12,1.17-0.28,1.68-0.47C45.19,28.81,45.26,28.93,45.35,29.03z M45.44,27.47c0.11,0.13,0.19,0.28,0.25,0.42
					c-0.39,0.11-1.57,0.02-2.36,0.1C42.68,28,41.98,28,41.25,28c0.01-0.21,0.01-0.42,0.01-0.65c0-0.28-0.01-0.55-0.02-0.8
					c1.19,0.01,2.21,0.09,2.81,0.3l0.76,0.19C45.08,27.15,45.29,27.3,45.44,27.47c-0.01-0.01-0.02-0.01-0.02-0.01
					C45.42,27.46,45.43,27.47,45.44,27.47z"/>
				<path class="st2" d="M36.84,32.42l0.27-0.09c-2.63,0.01-8.35,2.23-11.08,7.8c0.03-0.15,0.05-0.3,0.06-0.45
					c-0.01,0.02-0.02,0.03-0.04,0.05c0.65-1.44,1.36-2.62,1.76-3.5c-0.52,0.41-1.22,1.05-1.93,1.89c0.28-0.49,0.53-0.93,0.71-1.33
					c0.62-0.89,1.24-1.62,1.79-2.14c-2.5,0.98-6.5,5.57-6.59,11.88c-0.23,6.14,3.14,10.94,5.53,12.28l0.18,0.15
					c-0.49-0.58-1.04-1.37-1.58-2.33c0.82,0.93,1.64,1.62,2.29,2.04l0.16,0.14c-0.25-0.38-0.55-0.81-0.87-1.31
					c-0.46-0.73-1.02-1.75-1.53-3c-0.2-1.13-0.58-2.49-0.9-3.98c0.01-0.08,0.02-0.15,0.03-0.24c1.12,3.74,3.64,6.44,5.3,7.34
					c-2.22-2.1-6.07-7.82-4.15-14.57C27.97,36.46,33.82,33.28,36.84,32.42z"/>
				<path class="st2" d="M56.1,59.24c-0.21-0.28-0.79-0.72-1.56-0.91c-0.75-0.16-1.43-0.11-1.78,0l-0.03,0
					c0.35,0.13,0.99,0.25,1.71,0.4C55.15,58.92,55.72,59.16,56.1,59.24z"/>
				<path class="st2" d="M42.62,57.45c-0.98-0.13-2.88-0.21-5.06-0.21c-2.17,0-4.06,0.08-5.04,0.21c0.99,0.12,2.88,0.21,5.04,0.21
					c2.12,0,3.97-0.08,4.98-0.2L42.62,57.45z"/>
				<path class="st2" d="M41.5,58.57c-0.91-0.1-2.69-0.15-4.73-0.1c-2.02,0.05-3.78,0.17-4.7,0.32c0.92,0.1,2.69,0.14,4.71,0.1
					c1.98-0.05,3.7-0.17,4.64-0.31L41.5,58.57z"/>
			</g>
		</g>
		<path class="st2" d="M74.07,42.16c-0.08,0.04-0.16,0.09-0.24,0.14c-0.08,0.05-0.15,0.11-0.22,0.18c-0.01,0.01-0.01,0.01-0.02,0.02
			c0.01,0.15-0.06,0.27-0.28,0.31c-0.03,0.04-0.06,0.07-0.08,0.11c-0.05,0.08-0.09,0.17-0.13,0.25c-0.23,0.53-0.24,1.11-0.09,1.66
			c0.03,0.11,0.07,0.22,0.11,0.32c0.14,0.3,0.31,0.58,0.51,0.84c0.07,0.08,0.14,0.17,0.21,0.25c0.08,0.1,0.17,0.19,0.26,0.28
			c0.1,0,0.21,0,0.35,0.01c0.17,0.14,0.15,0.26-0.02,0.33c0.46,0.46,0.96,0.9,1.41,1.37c0.06,0.06,0.12,0.12,0.18,0.18
			c0.29,0.31,0.59,0.62,0.89,0.92c0.07,0.07,0.14,0.14,0.21,0.21c0.4,0.41,0.79,0.83,1.16,1.26c0.3-0.45,0.63-0.88,0.98-1.31
			c0.06-0.07,0.12-0.14,0.18-0.21c0.26-0.31,0.5-0.63,0.75-0.94c0.05-0.06,0.1-0.13,0.15-0.19c0-0.01,0.01-0.01,0.01-0.02
			c-0.01,0-0.02,0-0.03,0c-0.83-0.02-0.71-0.72,0.27-0.53c0.04,0.04,0.08,0.08,0.11,0.12c0.46-0.54,0.95-1.05,1.33-1.62
			c0.06-0.08,0.11-0.17,0.17-0.26c0.16-0.27,0.29-0.55,0.38-0.85c0.03-0.11,0.05-0.21,0.06-0.33c0.07-0.55-0.03-1.13-0.34-1.65
			c-0.05-0.09-0.1-0.17-0.16-0.25c-0.12-0.16-0.27-0.3-0.44-0.43c-0.08-0.06-0.16-0.12-0.24-0.17c-0.09-0.05-0.17-0.1-0.26-0.14
			c-0.7-0.32-1.5-0.25-2.15,0.07c-0.64,0.32-1.03,0.94-1.29,1.58c-0.36-0.62-0.84-1.22-1.52-1.52
			C75.52,41.87,74.72,41.82,74.07,42.16z M78.1,44.76c0.32,0.03,0.64,0.07,0.55,0.27c0.24-0.08,0.08-0.36,0.4-0.41
			c0.3,0.22,0.69,0.55,1.23,0.48c-0.33,0.25,0.6,0.43,0.55,0.75c-0.79,0.06-1.53,0.05-2.45-0.23c0.19-0.43-0.28-0.14-0.55-0.51
			C77.88,44.97,78,44.87,78.1,44.76z M76.75,45.73c-0.12,0.1-0.38,0.14-0.27,0.35c-0.23-0.01-0.45-0.02-0.68-0.03
			c-0.15-0.18-0.31-0.36-0.28-0.62C76.32,45.38,76.27,45.66,76.75,45.73z"/>
		<path class="st1" d="M1.15,42.16c-0.08,0.04-0.16,0.09-0.24,0.14c-0.08,0.05-0.15,0.11-0.22,0.18c-0.01,0.01-0.01,0.01-0.02,0.02
			c0.01,0.15-0.06,0.27-0.28,0.31c-0.03,0.04-0.06,0.07-0.08,0.11C0.27,43,0.23,43.08,0.19,43.17c-0.23,0.53-0.24,1.11-0.09,1.66
			c0.03,0.11,0.07,0.22,0.11,0.32c0.14,0.3,0.31,0.58,0.51,0.84c0.07,0.08,0.14,0.17,0.21,0.25c0.08,0.1,0.17,0.19,0.26,0.28
			c0.1,0,0.21,0,0.35,0.01c0.17,0.14,0.15,0.26-0.02,0.33c0.46,0.46,0.96,0.9,1.41,1.37c0.06,0.06,0.12,0.12,0.18,0.18
			C3.4,48.73,3.69,49.04,4,49.34c0.07,0.07,0.14,0.14,0.21,0.21c0.4,0.41,0.79,0.83,1.16,1.26c0.3-0.45,0.63-0.88,0.98-1.31
			c0.06-0.07,0.12-0.14,0.18-0.21c0.26-0.31,0.5-0.63,0.75-0.94c0.05-0.06,0.1-0.13,0.15-0.19c0-0.01,0.01-0.01,0.01-0.02
			c-0.01,0-0.02,0-0.03,0c-0.83-0.02-0.71-0.72,0.27-0.53c0.04,0.04,0.08,0.08,0.11,0.12c0.46-0.54,0.95-1.05,1.33-1.62
			c0.06-0.08,0.11-0.17,0.17-0.26c0.16-0.27,0.29-0.55,0.38-0.85c0.03-0.11,0.05-0.21,0.06-0.33c0.07-0.55-0.03-1.13-0.34-1.65
			c-0.05-0.09-0.1-0.17-0.16-0.25c-0.12-0.16-0.27-0.3-0.44-0.43c-0.08-0.06-0.16-0.12-0.24-0.17c-0.09-0.05-0.17-0.1-0.26-0.14
			c-0.7-0.32-1.5-0.25-2.15,0.07c-0.64,0.32-1.03,0.94-1.29,1.58c-0.36-0.62-0.84-1.22-1.52-1.52C2.61,41.87,1.81,41.82,1.15,42.16z
			 M5.19,44.76c0.32,0.03,0.64,0.07,0.55,0.27c0.24-0.08,0.08-0.36,0.4-0.41c0.3,0.22,0.69,0.55,1.23,0.48
			c-0.33,0.25,0.6,0.43,0.55,0.75c-0.79,0.06-1.53,0.05-2.45-0.23c0.19-0.43-0.28-0.14-0.55-0.51C4.96,44.97,5.08,44.87,5.19,44.76z
			 M3.84,45.73c-0.12,0.1-0.38,0.14-0.27,0.35c-0.23-0.01-0.45-0.02-0.68-0.03c-0.15-0.18-0.31-0.36-0.28-0.62
			C3.4,45.38,3.36,45.66,3.84,45.73z"/>
	</g>
</g>
</svg>
